<svg xmlns="http://www.w3.org/2000/svg" xmlns:xlink="http://www.w3.org/1999/xlink" width="484" zoomAndPan="magnify" viewBox="0 0 363 341.249999" height="455" preserveAspectRatio="xMidYMid meet" version="1.0"><defs><g/><clipPath id="833144c787"><path d="M 22.132812 0 L 362.601562 0 L 362.601562 339.753906 L 22.132812 339.753906 Z M 22.132812 0 " clip-rule="nonzero"/></clipPath><clipPath id="086921fce6"><path d="M 101.109375 161.734375 L 108.171875 161.734375 L 108.171875 170.425781 L 101.109375 170.425781 Z M 101.109375 161.734375 " clip-rule="nonzero"/></clipPath><clipPath id="1c3a012765"><path d="M 104.640625 161.734375 C 102.691406 161.734375 101.109375 163.679688 101.109375 166.074219 C 101.109375 168.472656 102.691406 170.414062 104.640625 170.414062 C 106.589844 170.414062 108.171875 168.472656 108.171875 166.074219 C 108.171875 163.679688 106.589844 161.734375 104.640625 161.734375 Z M 104.640625 161.734375 " clip-rule="nonzero"/></clipPath><clipPath id="02e18814d2"><path d="M 102.363281 150.667969 L 113.980469 150.667969 L 113.980469 164.328125 L 102.363281 164.328125 Z M 102.363281 150.667969 " clip-rule="nonzero"/></clipPath><clipPath id="4c75b15c8e"><path d="M 108.171875 150.667969 C 104.964844 150.667969 102.363281 153.726562 102.363281 157.496094 C 102.363281 161.269531 104.964844 164.324219 108.171875 164.324219 C 111.378906 164.324219 113.980469 161.269531 113.980469 157.496094 C 113.980469 153.726562 111.378906 150.667969 108.171875 150.667969 Z M 108.171875 150.667969 " clip-rule="nonzero"/></clipPath><clipPath id="4d7ed90eaa"><path d="M 321 164 L 334 164 L 334 175 L 321 175 Z M 321 164 " clip-rule="nonzero"/></clipPath><clipPath id="f2170f9a5c"><path d="M 322.332031 163.90625 L 334.183594 165.898438 L 332.503906 175.878906 L 320.652344 173.882812 Z M 322.332031 163.90625 " clip-rule="nonzero"/></clipPath><clipPath id="6008dffb6a"><path d="M 328.246094 164.902344 C 324.980469 164.351562 321.957031 166.140625 321.492188 168.894531 C 321.027344 171.652344 323.296875 174.332031 326.5625 174.878906 C 329.828125 175.429688 332.851562 173.640625 333.316406 170.886719 C 333.78125 168.128906 331.511719 165.449219 328.246094 164.902344 Z M 328.246094 164.902344 " clip-rule="nonzero"/></clipPath><clipPath id="b40b112771"><path d="M 314 156 L 327 156 L 327 167 L 314 167 Z M 314 156 " clip-rule="nonzero"/></clipPath><clipPath id="aacb8a2a40"><path d="M 315.058594 155.71875 L 327.429688 157.375 L 326.039062 167.757812 L 313.667969 166.101562 Z M 315.058594 155.71875 " clip-rule="nonzero"/></clipPath><clipPath id="09fb5079ae"><path d="M 321.230469 156.542969 C 317.824219 156.085938 314.746094 158.042969 314.363281 160.910156 C 313.980469 163.777344 316.429688 166.472656 319.839844 166.929688 C 323.25 167.386719 326.324219 165.429688 326.707031 162.5625 C 327.09375 159.695312 324.640625 157 321.230469 156.542969 Z M 321.230469 156.542969 " clip-rule="nonzero"/></clipPath><clipPath id="55eb64f8f7"><path d="M 317 150 L 327 150 L 327 160 L 317 160 Z M 317 150 " clip-rule="nonzero"/></clipPath><clipPath id="7d6e941415"><path d="M 311.59375 154.738281 L 318.632812 136.597656 L 343.050781 146.070312 L 336.011719 164.210938 Z M 311.59375 154.738281 " clip-rule="nonzero"/></clipPath><clipPath id="37f5dcd9c4"><path d="M 311.59375 154.738281 L 318.632812 136.597656 L 343.050781 146.070312 L 336.011719 164.210938 Z M 311.59375 154.738281 " clip-rule="nonzero"/></clipPath><clipPath id="5155e5a6ed"><path d="M 322 141 L 328 141 L 328 146 L 322 146 Z M 322 141 " clip-rule="nonzero"/></clipPath><clipPath id="a06eea0b55"><path d="M 311.59375 154.738281 L 318.632812 136.597656 L 343.050781 146.070312 L 336.011719 164.210938 Z M 311.59375 154.738281 " clip-rule="nonzero"/></clipPath><clipPath id="4756b8c843"><path d="M 311.59375 154.738281 L 318.632812 136.597656 L 343.050781 146.070312 L 336.011719 164.210938 Z M 311.59375 154.738281 " clip-rule="nonzero"/></clipPath><clipPath id="7bd3741dea"><path d="M 331 146 L 341 146 L 341 157 L 331 157 Z M 331 146 " clip-rule="nonzero"/></clipPath><clipPath id="5104930a54"><path d="M 311.59375 154.738281 L 318.632812 136.597656 L 343.050781 146.070312 L 336.011719 164.210938 Z M 311.59375 154.738281 " clip-rule="nonzero"/></clipPath><clipPath id="c08feaf8cf"><path d="M 311.59375 154.738281 L 318.632812 136.597656 L 343.050781 146.070312 L 336.011719 164.210938 Z M 311.59375 154.738281 " clip-rule="nonzero"/></clipPath></defs><path fill="#02ab82" d="M 351.164062 169.910156 C 351.164062 257.671875 280.027344 328.808594 192.265625 328.808594 C 104.503906 328.808594 33.363281 257.671875 33.363281 169.910156 C 33.363281 82.148438 104.503906 11.007812 192.265625 11.007812 C 280.015625 11.007812 351.164062 82.148438 351.164062 169.910156 Z M 351.164062 169.910156 " fill-opacity="1" fill-rule="nonzero"/><g clip-path="url(#833144c787)"><path fill="#ff9ff3" d="M 192.253906 0 C 98.570312 0 22.34375 76.226562 22.34375 169.910156 C 22.34375 263.601562 98.570312 339.816406 192.253906 339.816406 C 285.9375 339.816406 362.164062 263.589844 362.164062 169.910156 C 362.171875 76.226562 285.945312 0 192.253906 0 Z M 192.253906 338.800781 C 99.128906 338.800781 23.371094 263.042969 23.371094 169.917969 C 23.371094 76.785156 99.128906 1.027344 192.253906 1.027344 C 285.378906 1.027344 361.136719 76.785156 361.136719 169.910156 C 361.144531 263.03125 285.378906 338.800781 192.253906 338.800781 Z M 192.253906 338.800781 " fill-opacity="1" fill-rule="nonzero"/></g><g fill="#fffcef" fill-opacity="1"><g transform="translate(48.616463, 184.76552)"><g><path d="M 0.34375 -1.28125 C 0.34375 -1.832031 0.507812 -2.242188 0.84375 -2.515625 C 1.1875 -2.785156 1.648438 -3.144531 2.234375 -3.59375 C 2.828125 -4.039062 3.484375 -4.765625 4.203125 -5.765625 C 4.609375 -6.347656 5.113281 -7.453125 5.71875 -9.078125 C 6.332031 -10.710938 7 -12.613281 7.71875 -14.78125 C 8.445312 -16.957031 9.1875 -19.195312 9.9375 -21.5 C 10.6875 -23.800781 11.375 -25.925781 12 -27.875 C 12.363281 -28.914062 12.5 -29.671875 12.40625 -30.140625 C 12.320312 -30.617188 12.128906 -30.984375 11.828125 -31.234375 C 11.535156 -31.484375 11.265625 -31.707031 11.015625 -31.90625 C 10.773438 -32.113281 10.65625 -32.441406 10.65625 -32.890625 C 10.65625 -33.523438 10.9375 -33.921875 11.5 -34.078125 C 12.0625 -34.242188 12.707031 -34.328125 13.4375 -34.328125 C 14.289062 -34.328125 14.941406 -34.257812 15.390625 -34.125 C 15.847656 -33.988281 16.664062 -33.921875 17.84375 -33.921875 C 19.15625 -33.921875 20.171875 -33.988281 20.890625 -34.125 C 21.609375 -34.257812 22.3125 -34.328125 23 -34.328125 C 23.488281 -34.328125 23.898438 -34.257812 24.234375 -34.125 C 24.578125 -33.988281 24.910156 -33.535156 25.234375 -32.765625 C 25.640625 -31.816406 26.15625 -30.332031 26.78125 -28.3125 C 27.414062 -26.300781 28.109375 -24.070312 28.859375 -21.625 C 29.609375 -19.1875 30.363281 -16.78125 31.125 -14.40625 C 31.894531 -12.039062 32.617188 -9.972656 33.296875 -8.203125 C 33.984375 -6.441406 34.550781 -5.269531 35 -4.6875 C 35.769531 -3.726562 36.378906 -3.09375 36.828125 -2.78125 C 37.285156 -2.46875 37.515625 -1.96875 37.515625 -1.28125 C 37.515625 -0.601562 37.285156 -0.15625 36.828125 0.0625 C 36.378906 0.289062 35.769531 0.40625 35 0.40625 C 34.132812 0.40625 33.101562 0.335938 31.90625 0.203125 C 30.707031 0.0664062 29.410156 0 28.015625 0 C 27.335938 0 26.507812 0.0664062 25.53125 0.203125 C 24.5625 0.335938 23.625 0.40625 22.71875 0.40625 C 21.90625 0.40625 21.21875 0.289062 20.65625 0.0625 C 20.09375 -0.15625 19.8125 -0.601562 19.8125 -1.28125 C 19.8125 -1.96875 19.957031 -2.457031 20.25 -2.75 C 20.539062 -3.039062 20.820312 -3.457031 21.09375 -4 C 21.363281 -4.539062 21.5 -5.46875 21.5 -6.78125 C 21.5 -7.820312 21.25 -8.632812 20.75 -9.21875 C 20.257812 -9.8125 19.628906 -10.109375 18.859375 -10.109375 L 12.609375 -10.109375 C 11.847656 -10.109375 11.21875 -9.8125 10.71875 -9.21875 C 10.21875 -8.632812 9.96875 -7.820312 9.96875 -6.78125 C 9.96875 -5.46875 10.148438 -4.515625 10.515625 -3.921875 C 10.878906 -3.335938 11.238281 -2.890625 11.59375 -2.578125 C 11.957031 -2.265625 12.140625 -1.832031 12.140625 -1.28125 C 12.140625 -0.65625 11.890625 -0.21875 11.390625 0.03125 C 10.898438 0.28125 10.335938 0.40625 9.703125 0.40625 C 8.929688 0.40625 8.328125 0.335938 7.890625 0.203125 C 7.460938 0.0664062 6.910156 0 6.234375 0 C 5.554688 0 5.003906 0.0664062 4.578125 0.203125 C 4.148438 0.335938 3.550781 0.40625 2.78125 0.40625 C 2.144531 0.40625 1.578125 0.28125 1.078125 0.03125 C 0.585938 -0.21875 0.34375 -0.65625 0.34375 -1.28125 Z M 11.875 -14.984375 C 11.507812 -13.953125 11.847656 -13.4375 12.890625 -13.4375 L 18.375 -13.4375 C 19.414062 -13.4375 19.757812 -13.953125 19.40625 -14.984375 C 18.8125 -16.703125 18.242188 -18.5 17.703125 -20.375 C 17.160156 -22.257812 16.707031 -23.832031 16.34375 -25.09375 C 16.164062 -25.6875 15.960938 -25.984375 15.734375 -25.984375 C 15.554688 -25.984375 15.351562 -25.710938 15.125 -25.171875 C 14.675781 -23.898438 14.175781 -22.3125 13.625 -20.40625 C 13.082031 -18.507812 12.5 -16.703125 11.875 -14.984375 Z M 11.875 -14.984375 "/></g></g></g><g fill="#fffcef" fill-opacity="1"><g transform="translate(84.703923, 184.76552)"><g/></g></g><g fill="#fffcef" fill-opacity="1"><g transform="translate(93.113335, 184.76552)"><g/></g></g><g fill="#fffcef" fill-opacity="1"><g transform="translate(101.525224, 184.76552)"><g><path d="M 1.359375 -13.5 C 1.359375 -17.707031 2.691406 -21.097656 5.359375 -23.671875 C 8.023438 -26.242188 11.753906 -27.53125 16.546875 -27.53125 C 20.710938 -27.53125 23.867188 -26.601562 26.015625 -24.75 C 28.160156 -22.894531 29.234375 -20.566406 29.234375 -17.765625 C 29.234375 -16.234375 28.691406 -14.851562 27.609375 -13.625 C 26.523438 -12.40625 25.03125 -11.796875 23.125 -11.796875 C 21.59375 -11.796875 20.328125 -12.328125 19.328125 -13.390625 C 18.335938 -14.453125 17.84375 -15.617188 17.84375 -16.890625 C 17.84375 -18.378906 17.941406 -19.65625 18.140625 -20.71875 C 18.347656 -21.78125 18.425781 -22.601562 18.375 -23.1875 C 18.332031 -23.78125 17.953125 -24.078125 17.234375 -24.078125 C 16.097656 -24.078125 15.132812 -23.140625 14.34375 -21.265625 C 13.550781 -19.390625 13.175781 -16.847656 13.21875 -13.640625 C 13.269531 -10.609375 13.800781 -8.175781 14.8125 -6.34375 C 15.832031 -4.507812 17.335938 -3.613281 19.328125 -3.65625 C 20.679688 -3.65625 21.695312 -3.945312 22.375 -4.53125 C 23.0625 -5.125 23.59375 -5.804688 23.96875 -6.578125 C 24.351562 -7.347656 24.75 -8.023438 25.15625 -8.609375 C 25.570312 -9.203125 26.207031 -9.5 27.0625 -9.5 C 27.832031 -9.5 28.410156 -9.257812 28.796875 -8.78125 C 29.179688 -8.3125 29.375 -7.78125 29.375 -7.1875 C 29.375 -5.65625 28.773438 -4.320312 27.578125 -3.1875 C 26.378906 -2.0625 24.785156 -1.179688 22.796875 -0.546875 C 20.804688 0.0859375 18.65625 0.40625 16.34375 0.40625 C 13.945312 0.40625 11.59375 -0.0546875 9.28125 -0.984375 C 6.976562 -1.910156 5.082031 -3.398438 3.59375 -5.453125 C 2.101562 -7.515625 1.359375 -10.195312 1.359375 -13.5 Z M 1.359375 -13.5 "/></g></g></g><g fill="#fffcef" fill-opacity="1"><g transform="translate(130.483786, 184.76552)"><g><path d="M 8.40625 0 C 7.726562 0 6.925781 0.0664062 6 0.203125 C 5.070312 0.335938 4.203125 0.40625 3.390625 0.40625 C 2.617188 0.40625 1.972656 0.289062 1.453125 0.0625 C 0.929688 -0.15625 0.671875 -0.601562 0.671875 -1.28125 C 0.671875 -1.78125 0.785156 -2.15625 1.015625 -2.40625 C 1.242188 -2.65625 1.515625 -2.972656 1.828125 -3.359375 C 2.148438 -3.742188 2.421875 -4.34375 2.640625 -5.15625 C 2.867188 -5.96875 2.984375 -7.164062 2.984375 -8.75 C 2.984375 -10.019531 2.984375 -11.5 2.984375 -13.1875 C 2.984375 -14.882812 2.992188 -16.613281 3.015625 -18.375 C 3.035156 -20.144531 3.046875 -21.773438 3.046875 -23.265625 C 3.046875 -24.753906 3.046875 -25.960938 3.046875 -26.890625 C 3.046875 -27.816406 3.046875 -28.28125 3.046875 -28.28125 C 3.046875 -29.5 2.863281 -30.332031 2.5 -30.78125 C 2.144531 -31.238281 1.785156 -31.601562 1.421875 -31.875 C 1.054688 -32.144531 0.875 -32.578125 0.875 -33.171875 C 0.875 -33.847656 1.097656 -34.3125 1.546875 -34.5625 C 2.003906 -34.8125 2.648438 -35.023438 3.484375 -35.203125 C 4.328125 -35.378906 5.335938 -35.671875 6.515625 -36.078125 C 7.960938 -36.628906 8.957031 -37.117188 9.5 -37.546875 C 10.039062 -37.972656 10.445312 -38.320312 10.71875 -38.59375 C 10.988281 -38.863281 11.414062 -39 12 -39 C 12.769531 -39 13.300781 -38.632812 13.59375 -37.90625 C 13.894531 -37.1875 14.046875 -36.332031 14.046875 -35.34375 L 14.046875 -22.515625 C 14.179688 -22.203125 14.472656 -22.28125 14.921875 -22.75 C 15.367188 -23.226562 16 -23.835938 16.8125 -24.578125 C 17.632812 -25.328125 18.628906 -26.003906 19.796875 -26.609375 C 20.972656 -27.222656 22.332031 -27.53125 23.875 -27.53125 C 26 -27.53125 27.601562 -27.078125 28.6875 -26.171875 C 29.769531 -25.273438 30.503906 -24.144531 30.890625 -22.78125 C 31.273438 -21.425781 31.46875 -20.050781 31.46875 -18.65625 L 31.46875 -8.75 C 31.46875 -7.164062 31.582031 -5.96875 31.8125 -5.15625 C 32.039062 -4.34375 32.3125 -3.742188 32.625 -3.359375 C 32.9375 -2.972656 33.207031 -2.65625 33.4375 -2.40625 C 33.664062 -2.15625 33.78125 -1.78125 33.78125 -1.28125 C 33.78125 -0.601562 33.585938 -0.15625 33.203125 0.0625 C 32.816406 0.289062 32.304688 0.40625 31.671875 0.40625 C 31.035156 0.40625 30.300781 0.335938 29.46875 0.203125 C 28.632812 0.0664062 27.832031 0 27.0625 0 C 26.34375 0 25.722656 0.03125 25.203125 0.09375 C 24.679688 0.164062 24.125 0.25 23.53125 0.34375 C 22.632812 0.425781 21.898438 0.222656 21.328125 -0.265625 C 20.765625 -0.765625 20.484375 -1.46875 20.484375 -2.375 L 20.484375 -13.5 C 20.484375 -15.664062 20.253906 -17.3125 19.796875 -18.4375 C 19.347656 -19.570312 18.535156 -20.140625 17.359375 -20.140625 C 16.503906 -20.140625 15.75 -19.789062 15.09375 -19.09375 C 14.4375 -18.394531 14.085938 -16.984375 14.046875 -14.859375 L 13.90625 -8.75 C 13.863281 -7.125 13.953125 -5.890625 14.171875 -5.046875 C 14.398438 -4.210938 14.671875 -3.625 14.984375 -3.28125 C 15.304688 -2.945312 15.585938 -2.65625 15.828125 -2.40625 C 16.078125 -2.15625 16.203125 -1.78125 16.203125 -1.28125 C 16.203125 -0.601562 15.941406 -0.15625 15.421875 0.0625 C 14.910156 0.289062 14.269531 0.40625 13.5 0.40625 C 12.632812 0.40625 11.738281 0.335938 10.8125 0.203125 C 9.882812 0.0664062 9.082031 0 8.40625 0 Z M 8.40625 0 "/></g></g></g><g fill="#fffcef" fill-opacity="1"><g transform="translate(163.1724, 184.76552)"><g><path d="M 5.5625 -24.75 C 3.9375 -24.75 2.769531 -25.210938 2.0625 -26.140625 C 1.363281 -27.066406 1.015625 -28.1875 1.015625 -29.5 C 1.015625 -30.863281 1.476562 -32.007812 2.40625 -32.9375 C 3.332031 -33.863281 4.472656 -34.328125 5.828125 -34.328125 C 7.140625 -34.328125 8.257812 -33.828125 9.1875 -32.828125 C 10.113281 -31.835938 10.578125 -30.414062 10.578125 -28.5625 C 10.578125 -27.519531 10.382812 -26.46875 10 -25.40625 C 9.613281 -24.34375 9.035156 -23.457031 8.265625 -22.75 C 7.503906 -22.050781 6.515625 -21.703125 5.296875 -21.703125 C 4.566406 -21.703125 4.066406 -21.800781 3.796875 -22 C 3.523438 -22.207031 3.390625 -22.445312 3.390625 -22.71875 C 3.390625 -22.988281 3.570312 -23.101562 3.9375 -23.0625 C 4.300781 -23.019531 4.707031 -23.109375 5.15625 -23.328125 C 5.65625 -23.597656 5.925781 -23.898438 5.96875 -24.234375 C 6.007812 -24.578125 5.875 -24.75 5.5625 -24.75 Z M 5.5625 -24.75 "/></g></g></g><g fill="#ff9ff3" fill-opacity="1"><g transform="translate(177.955489, 184.679908)"><g><path d="M 1.40625 -17.53125 C 1.40625 -20.894531 2.140625 -23.929688 3.609375 -26.640625 C 5.078125 -29.347656 7.128906 -31.492188 9.765625 -33.078125 C 12.410156 -34.671875 15.441406 -35.46875 18.859375 -35.46875 C 20.210938 -35.46875 21.265625 -35.394531 22.015625 -35.25 C 22.765625 -35.113281 23.648438 -35.046875 24.671875 -35.046875 C 25.472656 -35.046875 26.222656 -35.113281 26.921875 -35.25 C 27.617188 -35.394531 28.25 -35.46875 28.8125 -35.46875 C 29.1875 -35.46875 29.515625 -35.394531 29.796875 -35.25 C 30.078125 -35.113281 30.3125 -34.835938 30.5 -34.421875 C 31.289062 -32.460938 31.988281 -30.628906 32.59375 -28.921875 C 33.207031 -27.210938 33.523438 -25.832031 33.546875 -24.78125 C 33.566406 -23.726562 33.019531 -23.203125 31.90625 -23.203125 C 30.875 -23.203125 30.003906 -23.609375 29.296875 -24.421875 C 28.597656 -25.242188 27.875 -26.203125 27.125 -27.296875 C 26.382812 -28.398438 25.488281 -29.359375 24.4375 -30.171875 C 23.382812 -30.992188 21.992188 -31.40625 20.265625 -31.40625 C 18.628906 -31.40625 17.296875 -30.75 16.265625 -29.4375 C 15.234375 -28.132812 14.484375 -26.429688 14.015625 -24.328125 C 13.554688 -22.222656 13.328125 -19.957031 13.328125 -17.53125 C 13.328125 -15.09375 13.554688 -12.800781 14.015625 -10.65625 C 14.484375 -8.507812 15.234375 -6.753906 16.265625 -5.390625 C 17.296875 -4.035156 18.675781 -3.359375 20.40625 -3.359375 C 21.945312 -3.359375 23.101562 -3.734375 23.875 -4.484375 C 24.644531 -5.234375 25.238281 -6.15625 25.65625 -7.25 C 26.082031 -8.351562 26.46875 -9.453125 26.8125 -10.546875 C 27.164062 -11.648438 27.671875 -12.570312 28.328125 -13.3125 C 28.984375 -14.0625 29.941406 -14.4375 31.203125 -14.4375 C 32.648438 -14.4375 33.722656 -13.929688 34.421875 -12.921875 C 35.117188 -11.921875 35.375 -10.6875 35.1875 -9.21875 C 35.007812 -7.75 34.320312 -6.273438 33.125 -4.796875 C 31.9375 -3.328125 30.171875 -2.085938 27.828125 -1.078125 C 25.492188 -0.078125 22.503906 0.421875 18.859375 0.421875 C 15.304688 0.421875 12.21875 -0.367188 9.59375 -1.953125 C 6.976562 -3.546875 4.957031 -5.695312 3.53125 -8.40625 C 2.113281 -11.125 1.40625 -14.164062 1.40625 -17.53125 Z M 1.40625 -17.53125 "/></g></g></g><g fill="#fffcef" fill-opacity="1"><g transform="translate(214.31381, 182.684396)"><g><path d="M 6.234375 0.28125 C 4.441406 0.28125 3.113281 -0.242188 2.25 -1.296875 C 1.382812 -2.347656 0.953125 -3.613281 0.953125 -5.09375 C 0.953125 -7.226562 1.753906 -8.910156 3.359375 -10.140625 C 4.960938 -11.378906 7.039062 -12.269531 9.59375 -12.8125 C 12.03125 -13.320312 13.25 -14.125 13.25 -15.21875 C 13.25 -15.632812 13.070312 -16.039062 12.71875 -16.4375 C 12.363281 -16.84375 11.753906 -17.046875 10.890625 -17.046875 C 10.023438 -17.046875 9.320312 -16.8125 8.78125 -16.34375 C 8.238281 -15.875 7.757812 -15.34375 7.34375 -14.75 C 6.925781 -14.164062 6.46875 -13.640625 5.96875 -13.171875 C 5.476562 -12.710938 4.816406 -12.484375 3.984375 -12.484375 C 3.441406 -12.484375 2.96875 -12.671875 2.5625 -13.046875 C 2.164062 -13.429688 1.96875 -13.898438 1.96875 -14.453125 C 1.96875 -15.535156 2.398438 -16.453125 3.265625 -17.203125 C 4.128906 -17.960938 5.253906 -18.53125 6.640625 -18.90625 C 8.035156 -19.289062 9.550781 -19.484375 11.1875 -19.484375 C 12.945312 -19.484375 14.546875 -19.203125 15.984375 -18.640625 C 17.421875 -18.085938 18.570312 -17.15625 19.4375 -15.84375 C 20.300781 -14.53125 20.734375 -12.738281 20.734375 -10.46875 L 20.734375 -6.1875 C 20.734375 -5.070312 20.8125 -4.222656 20.96875 -3.640625 C 21.132812 -3.066406 21.328125 -2.644531 21.546875 -2.375 C 21.773438 -2.101562 21.96875 -1.878906 22.125 -1.703125 C 22.289062 -1.523438 22.375 -1.257812 22.375 -0.90625 C 22.375 -0.425781 22.226562 -0.109375 21.9375 0.046875 C 21.644531 0.203125 21.273438 0.28125 20.828125 0.28125 C 20.347656 0.28125 19.820312 0.234375 19.25 0.140625 C 18.675781 0.046875 18.144531 0 17.65625 0 C 17.144531 0 16.695312 0.0195312 16.3125 0.0625 C 15.9375 0.113281 15.539062 0.171875 15.125 0.234375 C 14.613281 0.304688 14.15625 0.242188 13.75 0.046875 C 13.351562 -0.140625 13.125 -0.492188 13.0625 -1.015625 C 13.03125 -1.523438 12.945312 -1.863281 12.8125 -2.03125 C 12.6875 -2.207031 12.53125 -2.296875 12.34375 -2.296875 C 11.988281 -2.296875 11.53125 -2.082031 10.96875 -1.65625 C 10.40625 -1.226562 9.734375 -0.796875 8.953125 -0.359375 C 8.171875 0.0664062 7.265625 0.28125 6.234375 0.28125 Z M 8.40625 -7.0625 C 8.40625 -6.125 8.632812 -5.457031 9.09375 -5.0625 C 9.5625 -4.664062 10.113281 -4.46875 10.75 -4.46875 C 11.550781 -4.46875 12.160156 -4.8125 12.578125 -5.5 C 12.992188 -6.1875 13.203125 -6.992188 13.203125 -7.921875 L 13.203125 -10.21875 C 13.203125 -11.082031 12.800781 -11.304688 12 -10.890625 C 11.488281 -10.640625 10.953125 -10.359375 10.390625 -10.046875 C 9.828125 -9.742188 9.351562 -9.367188 8.96875 -8.921875 C 8.59375 -8.472656 8.40625 -7.851562 8.40625 -7.0625 Z M 8.40625 -7.0625 "/></g></g></g><g fill="#fffcef" fill-opacity="1"><g transform="translate(235.915323, 182.684396)"><g><path d="M 6.1875 0 C 5.707031 0 5.140625 0.046875 4.484375 0.140625 C 3.828125 0.234375 3.210938 0.28125 2.640625 0.28125 C 2.097656 0.28125 1.640625 0.203125 1.265625 0.046875 C 0.898438 -0.109375 0.71875 -0.425781 0.71875 -0.90625 C 0.71875 -1.257812 0.796875 -1.523438 0.953125 -1.703125 C 1.117188 -1.878906 1.3125 -2.101562 1.53125 -2.375 C 1.757812 -2.644531 1.953125 -3.066406 2.109375 -3.640625 C 2.273438 -4.222656 2.359375 -5.070312 2.359375 -6.1875 C 2.359375 -7.664062 2.363281 -8.734375 2.375 -9.390625 C 2.394531 -10.046875 2.40625 -10.523438 2.40625 -10.828125 C 2.40625 -11.128906 2.40625 -11.472656 2.40625 -11.859375 C 2.40625 -12.722656 2.265625 -13.320312 1.984375 -13.65625 C 1.710938 -13.988281 1.441406 -14.25 1.171875 -14.4375 C 0.898438 -14.632812 0.765625 -14.941406 0.765625 -15.359375 C 0.765625 -15.835938 0.925781 -16.164062 1.25 -16.34375 C 1.570312 -16.519531 2.023438 -16.671875 2.609375 -16.796875 C 3.203125 -16.921875 3.914062 -17.128906 4.75 -17.421875 C 5.769531 -17.804688 6.472656 -18.148438 6.859375 -18.453125 C 7.242188 -18.753906 7.53125 -19 7.71875 -19.1875 C 7.914062 -19.382812 8.222656 -19.484375 8.640625 -19.484375 C 9.210938 -19.484375 9.59375 -19.226562 9.78125 -18.71875 C 9.976562 -18.207031 10.078125 -17.597656 10.078125 -16.890625 L 10.078125 -16.515625 C 10.078125 -16.066406 10.15625 -15.84375 10.3125 -15.84375 C 10.476562 -15.84375 10.734375 -16.023438 11.078125 -16.390625 C 11.429688 -16.753906 11.890625 -17.175781 12.453125 -17.65625 C 13.015625 -18.144531 13.6875 -18.570312 14.46875 -18.9375 C 15.25 -19.300781 16.140625 -19.484375 17.140625 -19.484375 C 18.128906 -19.484375 18.941406 -19.300781 19.578125 -18.9375 C 20.222656 -18.570312 20.726562 -18.144531 21.09375 -17.65625 C 21.457031 -17.175781 21.75 -16.753906 21.96875 -16.390625 C 22.195312 -16.023438 22.378906 -15.84375 22.515625 -15.84375 C 22.734375 -15.84375 23.019531 -16.015625 23.375 -16.359375 C 23.726562 -16.710938 24.175781 -17.140625 24.71875 -17.640625 C 25.257812 -18.140625 25.921875 -18.570312 26.703125 -18.9375 C 27.492188 -19.300781 28.429688 -19.484375 29.515625 -19.484375 C 31.023438 -19.484375 32.160156 -19.160156 32.921875 -18.515625 C 33.691406 -17.878906 34.210938 -17.082031 34.484375 -16.125 C 34.753906 -15.164062 34.890625 -14.191406 34.890625 -13.203125 L 34.890625 -6.1875 C 34.890625 -5.070312 34.96875 -4.222656 35.125 -3.640625 C 35.289062 -3.066406 35.476562 -2.644531 35.6875 -2.375 C 35.894531 -2.101562 36.085938 -1.878906 36.265625 -1.703125 C 36.441406 -1.523438 36.53125 -1.257812 36.53125 -0.90625 C 36.53125 -0.425781 36.394531 -0.109375 36.125 0.046875 C 35.851562 0.203125 35.492188 0.28125 35.046875 0.28125 C 34.597656 0.28125 34.078125 0.234375 33.484375 0.140625 C 32.890625 0.046875 32.320312 0 31.78125 0 C 31.269531 0 30.828125 0.0195312 30.453125 0.0625 C 30.085938 0.113281 29.695312 0.171875 29.28125 0.234375 C 28.632812 0.304688 28.113281 0.164062 27.71875 -0.1875 C 27.320312 -0.539062 27.125 -1.039062 27.125 -1.6875 L 27.125 -9.546875 C 27.125 -11.085938 26.96875 -12.253906 26.65625 -13.046875 C 26.351562 -13.847656 25.785156 -14.25 24.953125 -14.25 C 24.285156 -14.25 23.710938 -13.953125 23.234375 -13.359375 C 22.753906 -12.773438 22.515625 -11.585938 22.515625 -9.796875 L 22.515625 -6.1875 C 22.515625 -5.070312 22.59375 -4.222656 22.75 -3.640625 C 22.90625 -3.066406 23.09375 -2.644531 23.3125 -2.375 C 23.539062 -2.101562 23.734375 -1.878906 23.890625 -1.703125 C 24.054688 -1.523438 24.140625 -1.257812 24.140625 -0.90625 C 24.140625 -0.425781 24.003906 -0.109375 23.734375 0.046875 C 23.460938 0.203125 23.101562 0.28125 22.65625 0.28125 C 22.207031 0.28125 21.6875 0.234375 21.09375 0.140625 C 20.5 0.046875 19.929688 0 19.390625 0 C 18.878906 0 18.4375 0.0195312 18.0625 0.0625 C 17.695312 0.113281 17.304688 0.171875 16.890625 0.234375 C 16.253906 0.304688 15.734375 0.164062 15.328125 -0.1875 C 14.929688 -0.539062 14.734375 -1.039062 14.734375 -1.6875 L 14.734375 -9.546875 C 14.734375 -11.085938 14.570312 -12.253906 14.25 -13.046875 C 13.9375 -13.847656 13.363281 -14.25 12.53125 -14.25 C 11.789062 -14.25 11.195312 -13.875 10.75 -13.125 C 10.300781 -12.375 10.078125 -10.832031 10.078125 -8.5 L 10.078125 -6.1875 C 10.078125 -5.070312 10.15625 -4.222656 10.3125 -3.640625 C 10.476562 -3.066406 10.671875 -2.644531 10.890625 -2.375 C 11.117188 -2.101562 11.3125 -1.878906 11.46875 -1.703125 C 11.632812 -1.523438 11.71875 -1.257812 11.71875 -0.90625 C 11.71875 -0.425781 11.53125 -0.109375 11.15625 0.046875 C 10.789062 0.203125 10.335938 0.28125 9.796875 0.28125 C 9.179688 0.28125 8.546875 0.234375 7.890625 0.140625 C 7.234375 0.046875 6.664062 0 6.1875 0 Z M 6.1875 0 "/></g></g></g><g fill="#fffcef" fill-opacity="1"><g transform="translate(271.91785, 182.684396)"><g><path d="M 6.09375 0 C 5.613281 0 5.046875 0.046875 4.390625 0.140625 C 3.734375 0.234375 3.117188 0.28125 2.546875 0.28125 C 2.003906 0.28125 1.546875 0.203125 1.171875 0.046875 C 0.804688 -0.109375 0.625 -0.425781 0.625 -0.90625 C 0.625 -1.257812 0.703125 -1.523438 0.859375 -1.703125 C 1.023438 -1.878906 1.21875 -2.101562 1.4375 -2.375 C 1.664062 -2.644531 1.859375 -3.066406 2.015625 -3.640625 C 2.171875 -4.222656 2.25 -5.070312 2.25 -6.1875 C 2.25 -7.664062 2.253906 -8.734375 2.265625 -9.390625 C 2.285156 -10.046875 2.296875 -10.523438 2.296875 -10.828125 C 2.296875 -11.128906 2.296875 -11.472656 2.296875 -11.859375 C 2.296875 -12.722656 2.160156 -13.320312 1.890625 -13.65625 C 1.617188 -13.988281 1.347656 -14.25 1.078125 -14.4375 C 0.804688 -14.632812 0.671875 -14.941406 0.671875 -15.359375 C 0.671875 -15.835938 0.828125 -16.164062 1.140625 -16.34375 C 1.460938 -16.519531 1.921875 -16.671875 2.515625 -16.796875 C 3.109375 -16.921875 3.820312 -17.128906 4.65625 -17.421875 C 5.675781 -17.804688 6.378906 -18.148438 6.765625 -18.453125 C 7.148438 -18.753906 7.4375 -19 7.625 -19.1875 C 7.820312 -19.382812 8.128906 -19.484375 8.546875 -19.484375 C 9.117188 -19.484375 9.5 -19.226562 9.6875 -18.71875 C 9.882812 -18.207031 9.984375 -17.597656 9.984375 -16.890625 L 9.984375 -6.1875 C 9.984375 -5.070312 10.0625 -4.222656 10.21875 -3.640625 C 10.382812 -3.066406 10.578125 -2.644531 10.796875 -2.375 C 11.023438 -2.101562 11.21875 -1.878906 11.375 -1.703125 C 11.53125 -1.523438 11.609375 -1.257812 11.609375 -0.90625 C 11.609375 -0.425781 11.425781 -0.109375 11.0625 0.046875 C 10.695312 0.203125 10.242188 0.28125 9.703125 0.28125 C 9.085938 0.28125 8.453125 0.234375 7.796875 0.140625 C 7.140625 0.046875 6.570312 0 6.09375 0 Z M 0.625 -20.828125 C 0.300781 -21.785156 0.46875 -22.820312 1.125 -23.9375 C 1.78125 -25.0625 2.78125 -25.976562 4.125 -26.6875 C 5.25 -27.257812 6.273438 -27.546875 7.203125 -27.546875 C 8.609375 -27.546875 9.519531 -26.972656 9.9375 -25.828125 C 10.289062 -24.835938 10.140625 -23.796875 9.484375 -22.703125 C 8.828125 -21.617188 7.828125 -20.707031 6.484375 -19.96875 C 5.328125 -19.394531 4.285156 -19.109375 3.359375 -19.109375 C 1.984375 -19.109375 1.070312 -19.679688 0.625 -20.828125 Z M 0.625 -20.828125 "/></g></g></g><g fill="#fffcef" fill-opacity="1"><g transform="translate(282.718612, 182.684396)"><g><path d="M 11.375 0.28125 C 8.175781 0.28125 5.640625 -0.585938 3.765625 -2.328125 C 1.890625 -4.066406 0.953125 -6.488281 0.953125 -9.59375 C 0.953125 -12.726562 1.890625 -15.160156 3.765625 -16.890625 C 5.640625 -18.617188 8.175781 -19.484375 11.375 -19.484375 C 14.570312 -19.484375 17.109375 -18.617188 18.984375 -16.890625 C 20.859375 -15.160156 21.796875 -12.726562 21.796875 -9.59375 C 21.796875 -6.488281 20.859375 -4.066406 18.984375 -2.328125 C 17.109375 -0.585938 14.570312 0.28125 11.375 0.28125 Z M 8.875 -9.59375 C 8.875 -8.28125 8.945312 -7.070312 9.09375 -5.96875 C 9.238281 -4.863281 9.492188 -3.992188 9.859375 -3.359375 C 10.234375 -2.722656 10.738281 -2.40625 11.375 -2.40625 C 12.050781 -2.40625 12.570312 -2.722656 12.9375 -3.359375 C 13.300781 -3.992188 13.546875 -4.863281 13.671875 -5.96875 C 13.804688 -7.070312 13.875 -8.28125 13.875 -9.59375 C 13.875 -10.9375 13.804688 -12.148438 13.671875 -13.234375 C 13.546875 -14.328125 13.300781 -15.191406 12.9375 -15.828125 C 12.570312 -16.472656 12.050781 -16.796875 11.375 -16.796875 C 10.738281 -16.796875 10.234375 -16.472656 9.859375 -15.828125 C 9.492188 -15.191406 9.238281 -14.328125 9.09375 -13.234375 C 8.945312 -12.148438 8.875 -10.9375 8.875 -9.59375 Z M 8.875 -9.59375 "/></g></g></g><g fill="#fffcef" fill-opacity="1"><g transform="translate(304.224126, 182.684396)"><g><path d="M 0.484375 -0.90625 C 0.484375 -1.257812 0.5625 -1.523438 0.71875 -1.703125 C 0.875 -1.878906 1.0625 -2.101562 1.28125 -2.375 C 1.507812 -2.644531 1.703125 -3.066406 1.859375 -3.640625 C 2.023438 -4.222656 2.109375 -5.070312 2.109375 -6.1875 C 2.109375 -7.664062 2.113281 -8.734375 2.125 -9.390625 C 2.144531 -10.046875 2.15625 -10.523438 2.15625 -10.828125 C 2.15625 -11.128906 2.15625 -11.472656 2.15625 -11.859375 C 2.15625 -12.722656 2.019531 -13.320312 1.75 -13.65625 C 1.476562 -13.988281 1.207031 -14.25 0.9375 -14.4375 C 0.664062 -14.632812 0.53125 -14.941406 0.53125 -15.359375 C 0.53125 -15.835938 0.6875 -16.164062 1 -16.34375 C 1.320312 -16.519531 1.78125 -16.671875 2.375 -16.796875 C 2.96875 -16.921875 3.679688 -17.128906 4.515625 -17.421875 C 5.535156 -17.804688 6.238281 -18.148438 6.625 -18.453125 C 7.007812 -18.753906 7.296875 -19 7.484375 -19.1875 C 7.679688 -19.382812 7.988281 -19.484375 8.40625 -19.484375 C 8.976562 -19.484375 9.359375 -19.226562 9.546875 -18.71875 C 9.742188 -18.207031 9.84375 -17.597656 9.84375 -16.890625 L 9.84375 -16.515625 C 9.84375 -16.066406 9.921875 -15.84375 10.078125 -15.84375 C 10.234375 -15.84375 10.488281 -16.023438 10.84375 -16.390625 C 11.195312 -16.753906 11.65625 -17.175781 12.21875 -17.65625 C 12.78125 -18.144531 13.453125 -18.570312 14.234375 -18.9375 C 15.015625 -19.300781 15.898438 -19.484375 16.890625 -19.484375 C 18.398438 -19.484375 19.535156 -19.160156 20.296875 -18.515625 C 21.066406 -17.878906 21.585938 -17.082031 21.859375 -16.125 C 22.128906 -15.164062 22.265625 -14.191406 22.265625 -13.203125 L 22.265625 -6.1875 C 22.265625 -5.070312 22.34375 -4.222656 22.5 -3.640625 C 22.664062 -3.066406 22.859375 -2.644531 23.078125 -2.375 C 23.304688 -2.101562 23.5 -1.878906 23.65625 -1.703125 C 23.820312 -1.523438 23.90625 -1.257812 23.90625 -0.90625 C 23.90625 -0.425781 23.769531 -0.109375 23.5 0.046875 C 23.226562 0.203125 22.867188 0.28125 22.421875 0.28125 C 21.972656 0.28125 21.453125 0.234375 20.859375 0.140625 C 20.265625 0.046875 19.695312 0 19.15625 0 C 18.644531 0 18.203125 0.0195312 17.828125 0.0625 C 17.460938 0.113281 17.070312 0.171875 16.65625 0.234375 C 16.019531 0.304688 15.5 0.164062 15.09375 -0.1875 C 14.695312 -0.539062 14.5 -1.039062 14.5 -1.6875 L 14.5 -9.546875 C 14.5 -11.085938 14.335938 -12.253906 14.015625 -13.046875 C 13.691406 -13.847656 13.113281 -14.25 12.28125 -14.25 C 11.550781 -14.25 10.960938 -13.875 10.515625 -13.125 C 10.066406 -12.375 9.84375 -10.832031 9.84375 -8.5 L 9.84375 -6.1875 C 9.84375 -5.070312 9.921875 -4.222656 10.078125 -3.640625 C 10.234375 -3.066406 10.421875 -2.644531 10.640625 -2.375 C 10.867188 -2.101562 11.0625 -1.878906 11.21875 -1.703125 C 11.382812 -1.523438 11.46875 -1.257812 11.46875 -0.90625 C 11.46875 -0.425781 11.285156 -0.109375 10.921875 0.046875 C 10.554688 0.203125 10.097656 0.28125 9.546875 0.28125 C 8.941406 0.28125 8.3125 0.234375 7.65625 0.140625 C 7 0.046875 6.429688 0 5.953125 0 C 5.472656 0 4.90625 0.046875 4.25 0.140625 C 3.59375 0.234375 2.976562 0.28125 2.40625 0.28125 C 1.851562 0.28125 1.394531 0.203125 1.03125 0.046875 C 0.664062 -0.109375 0.484375 -0.425781 0.484375 -0.90625 Z M 0.484375 -0.90625 "/></g></g></g><g clip-path="url(#086921fce6)"><g clip-path="url(#1c3a012765)"><path fill="#02ab82" d="M 101.109375 161.734375 L 108.171875 161.734375 L 108.171875 170.425781 L 101.109375 170.425781 Z M 101.109375 161.734375 " fill-opacity="1" fill-rule="nonzero"/></g></g><g clip-path="url(#02e18814d2)"><g clip-path="url(#4c75b15c8e)"><path fill="#02ab82" d="M 102.363281 150.667969 L 113.980469 150.667969 L 113.980469 164.328125 L 102.363281 164.328125 Z M 102.363281 150.667969 " fill-opacity="1" fill-rule="nonzero"/></g></g><g clip-path="url(#4d7ed90eaa)"><g clip-path="url(#f2170f9a5c)"><g clip-path="url(#6008dffb6a)"><path fill="#02ab82" d="M 322.332031 163.90625 L 334.144531 165.894531 L 332.464844 175.875 L 320.652344 173.882812 Z M 322.332031 163.90625 " fill-opacity="1" fill-rule="nonzero"/></g></g></g><g clip-path="url(#b40b112771)"><g clip-path="url(#aacb8a2a40)"><g clip-path="url(#09fb5079ae)"><path fill="#02ab82" d="M 315.058594 155.71875 L 327.390625 157.371094 L 325.996094 167.753906 L 313.667969 166.101562 Z M 315.058594 155.71875 " fill-opacity="1" fill-rule="nonzero"/></g></g></g><g clip-path="url(#55eb64f8f7)"><g clip-path="url(#7d6e941415)"><g clip-path="url(#37f5dcd9c4)"><path fill="#fffcef" d="M 322.617188 159.015625 C 322.617188 159.015625 327.289062 159.804688 326.519531 152.019531 C 326.519531 152.019531 325.539062 148.386719 321.308594 151.125 C 321.308594 151.125 312.128906 153.386719 322.617188 159.015625 Z M 322.617188 159.015625 " fill-opacity="1" fill-rule="nonzero"/></g></g></g><g clip-path="url(#5155e5a6ed)"><g clip-path="url(#a06eea0b55)"><g clip-path="url(#4756b8c843)"><path fill="#fffcef" d="M 325.316406 145.957031 C 325.316406 145.957031 327.601562 146.347656 327.226562 142.53125 C 327.226562 142.53125 326.742188 140.746094 324.667969 142.085938 C 324.667969 142.085938 320.175781 143.199219 325.316406 145.957031 Z M 325.316406 145.957031 " fill-opacity="1" fill-rule="nonzero"/></g></g></g><g clip-path="url(#7bd3741dea)"><g clip-path="url(#5104930a54)"><g clip-path="url(#c08feaf8cf)"><path fill="#fffcef" d="M 331.96875 150.523438 C 331.96875 150.523438 331.507812 158.722656 335.429688 156.214844 C 339.347656 153.714844 340.9375 152.308594 340.9375 152.308594 C 340.9375 152.308594 335.085938 143.332031 333.527344 146.929688 C 331.96875 150.523438 331.96875 150.523438 331.96875 150.523438 Z M 331.96875 150.523438 " fill-opacity="1" fill-rule="nonzero"/></g></g></g><g fill="#fffcef" fill-opacity="1"><g transform="translate(119.711005, 211.601383)"><g><path d="M 4.3125 -3.078125 L 6.609375 -9.484375 C 6.722656 -9.785156 6.878906 -10.007812 7.078125 -10.15625 C 7.273438 -10.3125 7.484375 -10.390625 7.703125 -10.390625 C 7.929688 -10.390625 8.128906 -10.3125 8.296875 -10.15625 C 8.472656 -10.007812 8.5625 -9.796875 8.5625 -9.515625 C 8.5625 -9.359375 8.53125 -9.195312 8.46875 -9.03125 L 6.0625 -2.359375 C 6.039062 -2.296875 6.023438 -2.234375 6.015625 -2.171875 C 6.015625 -2.109375 6.015625 -2.050781 6.015625 -2 C 6.015625 -1.84375 6.0625 -1.722656 6.15625 -1.640625 C 6.25 -1.554688 6.378906 -1.515625 6.546875 -1.515625 C 6.921875 -1.515625 7.289062 -1.734375 7.65625 -2.171875 C 8.019531 -2.609375 8.34375 -3.210938 8.625 -3.984375 C 8.695312 -4.191406 8.8125 -4.34375 8.96875 -4.4375 C 9.125 -4.53125 9.28125 -4.578125 9.4375 -4.578125 C 9.625 -4.578125 9.785156 -4.523438 9.921875 -4.421875 C 10.054688 -4.316406 10.125 -4.164062 10.125 -3.96875 C 10.125 -3.875 10.109375 -3.785156 10.078125 -3.703125 C 9.835938 -2.984375 9.539062 -2.34375 9.1875 -1.78125 C 8.84375 -1.226562 8.4375 -0.789062 7.96875 -0.46875 C 7.507812 -0.15625 6.976562 0 6.375 0 C 5.9375 0 5.535156 -0.0859375 5.171875 -0.265625 C 4.816406 -0.441406 4.546875 -0.703125 4.359375 -1.046875 C 4.085938 -0.773438 3.753906 -0.53125 3.359375 -0.3125 C 2.960938 -0.101562 2.550781 0 2.125 0 C 1.726562 0 1.367188 -0.0820312 1.046875 -0.25 C 0.722656 -0.414062 0.460938 -0.648438 0.265625 -0.953125 C 0.078125 -1.253906 -0.015625 -1.609375 -0.015625 -2.015625 C -0.015625 -2.296875 0.0351562 -2.582031 0.140625 -2.875 L 2.53125 -9.484375 C 2.632812 -9.785156 2.785156 -10.007812 2.984375 -10.15625 C 3.179688 -10.3125 3.382812 -10.390625 3.59375 -10.390625 C 3.800781 -10.390625 3.988281 -10.316406 4.15625 -10.171875 C 4.332031 -10.023438 4.421875 -9.8125 4.421875 -9.53125 C 4.421875 -9.363281 4.390625 -9.195312 4.328125 -9.03125 L 2.015625 -2.59375 C 1.972656 -2.445312 1.953125 -2.316406 1.953125 -2.203125 C 1.953125 -2.015625 2.007812 -1.859375 2.125 -1.734375 C 2.238281 -1.617188 2.390625 -1.5625 2.578125 -1.5625 C 2.804688 -1.5625 3.035156 -1.628906 3.265625 -1.765625 C 3.492188 -1.898438 3.703125 -2.082031 3.890625 -2.3125 C 4.078125 -2.550781 4.21875 -2.804688 4.3125 -3.078125 Z M 4.3125 -3.078125 "/></g></g></g><g fill="#fffcef" fill-opacity="1"><g transform="translate(127.769309, 211.601383)"><g><path d="M 6.671875 -3.453125 C 6.742188 -3.648438 6.851562 -3.789062 7 -3.875 C 7.15625 -3.96875 7.316406 -4.015625 7.484375 -4.015625 C 7.660156 -4.015625 7.820312 -3.960938 7.96875 -3.859375 C 8.113281 -3.765625 8.1875 -3.625 8.1875 -3.4375 C 8.1875 -3.351562 8.164062 -3.257812 8.125 -3.15625 C 7.851562 -2.382812 7.535156 -1.765625 7.171875 -1.296875 C 6.804688 -0.835938 6.414062 -0.503906 6 -0.296875 C 5.59375 -0.0976562 5.1875 0 4.78125 0 C 4.4375 0 4.117188 -0.0625 3.828125 -0.1875 C 3.535156 -0.320312 3.296875 -0.515625 3.109375 -0.765625 C 2.929688 -1.015625 2.84375 -1.320312 2.84375 -1.6875 C 2.84375 -1.8125 2.859375 -1.941406 2.890625 -2.078125 C 2.921875 -2.210938 2.957031 -2.347656 3 -2.484375 L 3.875 -4.9375 C 3.914062 -5.0625 3.9375 -5.164062 3.9375 -5.25 C 3.9375 -5.351562 3.898438 -5.4375 3.828125 -5.5 C 3.765625 -5.570312 3.675781 -5.609375 3.5625 -5.609375 C 3.394531 -5.609375 3.210938 -5.535156 3.015625 -5.390625 C 2.828125 -5.253906 2.648438 -5.035156 2.484375 -4.734375 C 2.347656 -4.347656 2.195312 -3.921875 2.03125 -3.453125 C 1.875 -2.984375 1.710938 -2.515625 1.546875 -2.046875 C 1.378906 -1.585938 1.226562 -1.164062 1.09375 -0.78125 C 1 -0.507812 0.847656 -0.304688 0.640625 -0.171875 C 0.429688 -0.0351562 0.222656 0.03125 0.015625 0.03125 C -0.179688 0.03125 -0.351562 -0.0234375 -0.5 -0.140625 C -0.644531 -0.253906 -0.71875 -0.421875 -0.71875 -0.640625 C -0.71875 -0.742188 -0.703125 -0.847656 -0.671875 -0.953125 L 1.328125 -6.53125 C 1.390625 -6.695312 1.492188 -6.820312 1.640625 -6.90625 C 1.785156 -6.988281 1.941406 -7.03125 2.109375 -7.03125 C 2.265625 -7.03125 2.410156 -7 2.546875 -6.9375 C 2.679688 -6.882812 2.765625 -6.800781 2.796875 -6.6875 C 3.097656 -6.914062 3.484375 -7.03125 3.953125 -7.03125 C 4.265625 -7.03125 4.554688 -6.953125 4.828125 -6.796875 C 5.097656 -6.648438 5.3125 -6.453125 5.46875 -6.203125 C 5.632812 -5.953125 5.71875 -5.664062 5.71875 -5.34375 C 5.71875 -5.15625 5.675781 -4.9375 5.59375 -4.6875 L 4.65625 -2.03125 C 4.613281 -1.894531 4.59375 -1.796875 4.59375 -1.734375 C 4.59375 -1.523438 4.707031 -1.421875 4.9375 -1.421875 C 5.207031 -1.421875 5.5 -1.578125 5.8125 -1.890625 C 6.125 -2.210938 6.410156 -2.734375 6.671875 -3.453125 Z M 6.671875 -3.453125 "/></g></g></g><g fill="#fffcef" fill-opacity="1"><g transform="translate(134.055512, 211.601383)"><g/></g></g><g fill="#fffcef" fill-opacity="1"><g transform="translate(138.62947, 211.601383)"><g><path d="M 4.578125 -1.046875 C 5.054688 -1.285156 5.484375 -1.59375 5.859375 -1.96875 C 6.242188 -2.351562 6.550781 -2.847656 6.78125 -3.453125 C 6.863281 -3.691406 6.984375 -3.863281 7.140625 -3.96875 C 7.296875 -4.070312 7.453125 -4.125 7.609375 -4.125 C 7.796875 -4.125 7.953125 -4.066406 8.078125 -3.953125 C 8.210938 -3.847656 8.28125 -3.691406 8.28125 -3.484375 C 8.28125 -3.390625 8.265625 -3.296875 8.234375 -3.203125 C 8.023438 -2.578125 7.765625 -2.039062 7.453125 -1.59375 C 7.140625 -1.15625 6.789062 -0.785156 6.40625 -0.484375 C 6.03125 -0.179688 5.628906 0.0664062 5.203125 0.265625 C 4.785156 0.472656 4.363281 0.644531 3.9375 0.78125 L 3.390625 2.296875 C 3.140625 2.992188 2.757812 3.503906 2.25 3.828125 C 1.738281 4.160156 1.1875 4.328125 0.59375 4.328125 C 0.207031 4.328125 -0.15625 4.242188 -0.5 4.078125 C -0.84375 3.921875 -1.117188 3.695312 -1.328125 3.40625 C -1.546875 3.113281 -1.65625 2.773438 -1.65625 2.390625 C -1.65625 2.210938 -1.625 2.023438 -1.5625 1.828125 C -1.445312 1.429688 -1.226562 1.113281 -0.90625 0.875 C -0.59375 0.632812 -0.234375 0.445312 0.171875 0.3125 C 0.578125 0.175781 0.960938 0.0703125 1.328125 0 C 0.921875 -0.0820312 0.570312 -0.273438 0.28125 -0.578125 C 0 -0.890625 -0.140625 -1.285156 -0.140625 -1.765625 C -0.140625 -2.003906 -0.0976562 -2.253906 -0.015625 -2.515625 L 1 -5.40625 C 1.195312 -5.96875 1.503906 -6.378906 1.921875 -6.640625 C 2.347656 -6.898438 2.78125 -7.03125 3.21875 -7.03125 C 3.539062 -7.03125 3.820312 -6.984375 4.0625 -6.890625 C 4.300781 -6.796875 4.519531 -6.640625 4.71875 -6.421875 C 4.789062 -6.628906 4.910156 -6.78125 5.078125 -6.875 C 5.242188 -6.976562 5.414062 -7.03125 5.59375 -7.03125 C 5.675781 -7.03125 5.753906 -7.015625 5.828125 -6.984375 C 5.878906 -6.972656 5.945312 -6.941406 6.03125 -6.890625 C 6.113281 -6.847656 6.1875 -6.78125 6.25 -6.6875 C 6.320312 -6.601562 6.359375 -6.46875 6.359375 -6.28125 C 6.359375 -6.113281 6.316406 -5.910156 6.234375 -5.671875 Z M 4.0625 -4.734375 C 4.070312 -4.765625 4.078125 -4.796875 4.078125 -4.828125 C 4.078125 -4.859375 4.078125 -4.882812 4.078125 -4.90625 C 4.078125 -5.125 4.003906 -5.296875 3.859375 -5.421875 C 3.722656 -5.546875 3.566406 -5.609375 3.390625 -5.609375 C 3.265625 -5.609375 3.140625 -5.566406 3.015625 -5.484375 C 2.890625 -5.398438 2.796875 -5.273438 2.734375 -5.109375 L 1.65625 -2.078125 C 1.644531 -2.035156 1.632812 -1.988281 1.625 -1.9375 C 1.613281 -1.894531 1.609375 -1.859375 1.609375 -1.828125 C 1.609375 -1.703125 1.65625 -1.601562 1.75 -1.53125 C 1.84375 -1.457031 1.960938 -1.421875 2.109375 -1.421875 C 2.316406 -1.421875 2.515625 -1.492188 2.703125 -1.640625 C 2.890625 -1.796875 3.039062 -1.988281 3.15625 -2.21875 Z M 1.75 1.328125 C 1.351562 1.429688 1.019531 1.546875 0.75 1.671875 C 0.476562 1.796875 0.300781 1.960938 0.21875 2.171875 C 0.175781 2.273438 0.15625 2.359375 0.15625 2.421875 C 0.15625 2.523438 0.1875 2.613281 0.25 2.6875 C 0.320312 2.769531 0.425781 2.8125 0.5625 2.8125 C 0.75 2.8125 0.925781 2.753906 1.09375 2.640625 C 1.257812 2.535156 1.378906 2.367188 1.453125 2.140625 Z M 1.75 1.328125 "/></g></g></g><g fill="#fffcef" fill-opacity="1"><g transform="translate(145.023433, 211.601383)"><g><path d="M 5.0625 -2.5 C 5.082031 -2.488281 5.109375 -2.484375 5.140625 -2.484375 C 5.171875 -2.484375 5.203125 -2.484375 5.234375 -2.484375 C 5.578125 -2.484375 5.882812 -2.601562 6.15625 -2.84375 C 6.425781 -3.082031 6.625 -3.382812 6.75 -3.75 C 6.8125 -3.96875 6.914062 -4.125 7.0625 -4.21875 C 7.21875 -4.320312 7.378906 -4.375 7.546875 -4.375 C 7.710938 -4.375 7.863281 -4.3125 8 -4.1875 C 8.132812 -4.070312 8.203125 -3.90625 8.203125 -3.6875 C 8.203125 -3.59375 8.1875 -3.472656 8.15625 -3.328125 C 8.019531 -2.910156 7.8125 -2.53125 7.53125 -2.1875 C 7.25 -1.84375 6.910156 -1.566406 6.515625 -1.359375 C 6.117188 -1.160156 5.6875 -1.0625 5.21875 -1.0625 C 4.96875 -1.0625 4.726562 -1.09375 4.5 -1.15625 C 4.25 -0.726562 3.921875 -0.425781 3.515625 -0.25 C 3.117188 -0.0820312 2.6875 0 2.21875 0 C 1.8125 0 1.429688 -0.078125 1.078125 -0.234375 C 0.734375 -0.398438 0.453125 -0.632812 0.234375 -0.9375 C 0.0234375 -1.238281 -0.078125 -1.597656 -0.078125 -2.015625 C -0.078125 -2.148438 -0.0664062 -2.285156 -0.046875 -2.421875 C -0.0234375 -2.566406 0.015625 -2.71875 0.078125 -2.875 L 0.953125 -5.34375 C 1.078125 -5.695312 1.269531 -6 1.53125 -6.25 C 1.789062 -6.5 2.09375 -6.691406 2.4375 -6.828125 C 2.78125 -6.960938 3.140625 -7.03125 3.515625 -7.03125 C 3.953125 -7.03125 4.34375 -6.941406 4.6875 -6.765625 C 5.03125 -6.597656 5.300781 -6.359375 5.5 -6.046875 C 5.707031 -5.742188 5.8125 -5.390625 5.8125 -4.984375 C 5.8125 -4.828125 5.78125 -4.625 5.71875 -4.375 C 5.65625 -4.132812 5.578125 -3.898438 5.484375 -3.671875 C 5.398438 -3.441406 5.320312 -3.273438 5.25 -3.171875 C 5.175781 -3.054688 5.097656 -2.96875 5.015625 -2.90625 C 5.035156 -2.789062 5.046875 -2.691406 5.046875 -2.609375 C 5.054688 -2.523438 5.0625 -2.488281 5.0625 -2.5 Z M 3.953125 -4.34375 C 3.992188 -4.46875 4.03125 -4.597656 4.0625 -4.734375 C 4.09375 -4.867188 4.109375 -4.988281 4.109375 -5.09375 C 4.109375 -5.226562 4.050781 -5.347656 3.9375 -5.453125 C 3.820312 -5.554688 3.675781 -5.609375 3.5 -5.609375 C 3.3125 -5.609375 3.125 -5.554688 2.9375 -5.453125 C 2.757812 -5.347656 2.632812 -5.191406 2.5625 -4.984375 L 1.71875 -2.5625 C 1.6875 -2.507812 1.660156 -2.429688 1.640625 -2.328125 C 1.617188 -2.222656 1.609375 -2.113281 1.609375 -2 C 1.609375 -1.851562 1.644531 -1.71875 1.71875 -1.59375 C 1.800781 -1.476562 1.957031 -1.421875 2.1875 -1.421875 C 2.375 -1.421875 2.546875 -1.472656 2.703125 -1.578125 C 2.859375 -1.679688 2.976562 -1.835938 3.0625 -2.046875 C 2.945312 -2.140625 2.847656 -2.25 2.765625 -2.375 C 2.679688 -2.5 2.632812 -2.660156 2.625 -2.859375 C 2.625 -3.097656 2.679688 -3.3125 2.796875 -3.5 C 2.910156 -3.6875 3.0625 -3.828125 3.25 -3.921875 C 3.445312 -4.023438 3.648438 -4.066406 3.859375 -4.046875 C 3.867188 -4.097656 3.878906 -4.144531 3.890625 -4.1875 C 3.910156 -4.238281 3.929688 -4.289062 3.953125 -4.34375 Z M 3.953125 -4.34375 "/></g></g></g><g fill="#fffcef" fill-opacity="1"><g transform="translate(151.273711, 211.601383)"><g><path d="M 6.234375 -8.046875 C 6.316406 -7.898438 6.285156 -7.785156 6.140625 -7.703125 C 5.992188 -7.628906 5.832031 -7.59375 5.65625 -7.59375 C 5.15625 -7.59375 4.796875 -7.796875 4.578125 -8.203125 L 4.34375 -8.625 L 3.484375 -7.859375 C 3.378906 -7.753906 3.265625 -7.679688 3.140625 -7.640625 C 3.023438 -7.609375 2.910156 -7.59375 2.796875 -7.59375 C 2.628906 -7.59375 2.476562 -7.628906 2.34375 -7.703125 C 2.21875 -7.785156 2.101562 -7.878906 2 -7.984375 C 1.875 -8.117188 1.878906 -8.242188 2.015625 -8.359375 L 4.125 -10.109375 C 4.21875 -10.171875 4.316406 -10.203125 4.421875 -10.203125 L 4.90625 -10.203125 C 5.019531 -10.203125 5.097656 -10.15625 5.140625 -10.0625 Z M 6.859375 -3.46875 C 6.921875 -3.664062 7.023438 -3.804688 7.171875 -3.890625 C 7.316406 -3.972656 7.460938 -4.015625 7.609375 -4.015625 C 7.796875 -4.015625 7.960938 -3.960938 8.109375 -3.859375 C 8.265625 -3.753906 8.34375 -3.601562 8.34375 -3.40625 C 8.34375 -3.332031 8.332031 -3.265625 8.3125 -3.203125 C 8.03125 -2.367188 7.703125 -1.71875 7.328125 -1.25 C 6.960938 -0.789062 6.582031 -0.46875 6.1875 -0.28125 C 5.789062 -0.09375 5.398438 0 5.015625 0 C 4.648438 0 4.316406 -0.0703125 4.015625 -0.21875 C 3.710938 -0.363281 3.472656 -0.566406 3.296875 -0.828125 C 3.078125 -0.585938 2.828125 -0.390625 2.546875 -0.234375 C 2.273438 -0.078125 1.960938 0 1.609375 0 C 1.265625 0 0.957031 -0.0664062 0.6875 -0.203125 C 0.414062 -0.335938 0.203125 -0.53125 0.046875 -0.78125 C -0.109375 -1.03125 -0.1875 -1.3125 -0.1875 -1.625 C -0.1875 -1.832031 -0.148438 -2.046875 -0.078125 -2.265625 L 1.3125 -6.34375 C 1.40625 -6.582031 1.53125 -6.753906 1.6875 -6.859375 C 1.84375 -6.972656 2.003906 -7.03125 2.171875 -7.03125 C 2.398438 -7.03125 2.601562 -6.953125 2.78125 -6.796875 C 2.957031 -6.648438 3.046875 -6.453125 3.046875 -6.203125 C 3.046875 -6.085938 3.023438 -5.960938 2.984375 -5.828125 L 1.671875 -2.09375 C 1.628906 -1.957031 1.609375 -1.832031 1.609375 -1.71875 C 1.609375 -1.519531 1.703125 -1.421875 1.890625 -1.421875 C 2.128906 -1.421875 2.367188 -1.539062 2.609375 -1.78125 C 2.847656 -2.03125 3.050781 -2.316406 3.21875 -2.640625 L 4.53125 -6.3125 C 4.625 -6.570312 4.75 -6.753906 4.90625 -6.859375 C 5.070312 -6.972656 5.242188 -7.03125 5.421875 -7.03125 C 5.640625 -7.03125 5.832031 -6.953125 6 -6.796875 C 6.175781 -6.648438 6.265625 -6.457031 6.265625 -6.21875 C 6.265625 -6.164062 6.257812 -6.113281 6.25 -6.0625 C 6.25 -6.007812 6.238281 -5.953125 6.21875 -5.890625 L 4.78125 -1.890625 C 4.757812 -1.835938 4.75 -1.78125 4.75 -1.71875 C 4.75 -1.632812 4.78125 -1.5625 4.84375 -1.5 C 4.914062 -1.445312 5.003906 -1.421875 5.109375 -1.421875 C 5.390625 -1.421875 5.679688 -1.582031 5.984375 -1.90625 C 6.296875 -2.226562 6.585938 -2.75 6.859375 -3.46875 Z M 6.859375 -3.46875 "/></g></g></g><g fill="#fffcef" fill-opacity="1"><g transform="translate(157.727544, 211.601383)"><g><path d="M 4.265625 -3.375 C 4.335938 -3.5625 4.445312 -3.695312 4.59375 -3.78125 C 4.75 -3.875 4.898438 -3.921875 5.046875 -3.921875 C 5.234375 -3.921875 5.398438 -3.867188 5.546875 -3.765625 C 5.691406 -3.660156 5.765625 -3.519531 5.765625 -3.34375 C 5.765625 -3.3125 5.757812 -3.269531 5.75 -3.21875 C 5.75 -3.175781 5.738281 -3.132812 5.71875 -3.09375 C 5.375 -2.113281 4.894531 -1.351562 4.28125 -0.8125 C 3.675781 -0.269531 2.988281 0 2.21875 0 C 1.8125 0 1.429688 -0.0703125 1.078125 -0.21875 C 0.722656 -0.375 0.4375 -0.597656 0.21875 -0.890625 C 0.0078125 -1.179688 -0.09375 -1.53125 -0.09375 -1.9375 C -0.09375 -2.1875 -0.046875 -2.453125 0.046875 -2.734375 L 1.046875 -5.609375 L 0.65625 -5.609375 C 0.5 -5.609375 0.367188 -5.671875 0.265625 -5.796875 C 0.171875 -5.921875 0.125 -6.066406 0.125 -6.234375 C 0.125 -6.421875 0.195312 -6.597656 0.34375 -6.765625 C 0.5 -6.941406 0.734375 -7.03125 1.046875 -7.03125 L 1.5625 -7.03125 L 2.515625 -9.6875 C 2.585938 -9.894531 2.703125 -10.0625 2.859375 -10.1875 C 3.015625 -10.320312 3.191406 -10.390625 3.390625 -10.390625 C 3.648438 -10.390625 3.851562 -10.3125 4 -10.15625 C 4.144531 -10 4.21875 -9.8125 4.21875 -9.59375 C 4.21875 -9.519531 4.207031 -9.441406 4.1875 -9.359375 L 3.390625 -7.03125 L 3.921875 -7.03125 C 4.148438 -7.03125 4.316406 -6.96875 4.421875 -6.84375 C 4.523438 -6.726562 4.578125 -6.59375 4.578125 -6.4375 C 4.578125 -6.238281 4.5 -6.050781 4.34375 -5.875 C 4.1875 -5.695312 3.957031 -5.609375 3.65625 -5.609375 L 2.875 -5.609375 L 1.703125 -2.28125 C 1.691406 -2.238281 1.679688 -2.191406 1.671875 -2.140625 C 1.660156 -2.097656 1.65625 -2.054688 1.65625 -2.015625 C 1.65625 -1.847656 1.710938 -1.707031 1.828125 -1.59375 C 1.953125 -1.476562 2.125 -1.421875 2.34375 -1.421875 C 2.695312 -1.421875 3.046875 -1.582031 3.390625 -1.90625 C 3.734375 -2.226562 4.023438 -2.71875 4.265625 -3.375 Z M 4.265625 -3.375 "/></g></g></g><g fill="#fffcef" fill-opacity="1"><g transform="translate(161.642946, 211.601383)"><g/></g></g><g fill="#fffcef" fill-opacity="1"><g transform="translate(166.216904, 211.601383)"><g><path d="M 6.390625 -3.21875 C 6.484375 -3.476562 6.613281 -3.664062 6.78125 -3.78125 C 6.945312 -3.90625 7.113281 -3.96875 7.28125 -3.96875 C 7.457031 -3.96875 7.613281 -3.914062 7.75 -3.8125 C 7.882812 -3.71875 7.953125 -3.582031 7.953125 -3.40625 C 7.953125 -3.332031 7.9375 -3.253906 7.90625 -3.171875 C 7.613281 -2.265625 7.226562 -1.53125 6.75 -0.96875 C 6.28125 -0.40625 5.773438 0.00390625 5.234375 0.265625 C 5.410156 0.441406 5.554688 0.648438 5.671875 0.890625 C 5.785156 1.128906 5.84375 1.398438 5.84375 1.703125 C 5.84375 1.753906 5.835938 1.816406 5.828125 1.890625 C 5.828125 1.972656 5.820312 2.050781 5.8125 2.125 C 5.71875 2.5 5.550781 2.820312 5.3125 3.09375 C 5.070312 3.363281 4.789062 3.566406 4.46875 3.703125 C 4.15625 3.835938 3.832031 3.90625 3.5 3.90625 C 3.132812 3.90625 2.796875 3.828125 2.484375 3.671875 C 2.179688 3.523438 1.9375 3.316406 1.75 3.046875 C 1.5625 2.773438 1.46875 2.457031 1.46875 2.09375 C 1.46875 1.851562 1.507812 1.617188 1.59375 1.390625 C 1.675781 1.148438 1.742188 0.957031 1.796875 0.8125 C 1.847656 0.675781 1.898438 0.535156 1.953125 0.390625 C 2.003906 0.242188 2.070312 0.0546875 2.15625 -0.171875 C 2.070312 -0.160156 1.976562 -0.144531 1.875 -0.125 C 1.78125 -0.113281 1.691406 -0.109375 1.609375 -0.109375 C 1.253906 -0.109375 0.9375 -0.1875 0.65625 -0.34375 C 0.375 -0.507812 0.15625 -0.726562 0 -1 C -0.164062 -1.28125 -0.25 -1.585938 -0.25 -1.921875 C -0.25 -2.023438 -0.234375 -2.128906 -0.203125 -2.234375 C -0.179688 -2.347656 -0.15625 -2.457031 -0.125 -2.5625 L 0.953125 -5.671875 C 1.109375 -6.140625 1.375 -6.484375 1.75 -6.703125 C 2.132812 -6.921875 2.523438 -7.03125 2.921875 -7.03125 C 3.210938 -7.03125 3.484375 -6.976562 3.734375 -6.875 C 3.984375 -6.769531 4.1875 -6.601562 4.34375 -6.375 C 4.40625 -6.59375 4.523438 -6.753906 4.703125 -6.859375 C 4.878906 -6.972656 5.0625 -7.03125 5.25 -7.03125 C 5.445312 -7.03125 5.625 -6.960938 5.78125 -6.828125 C 5.9375 -6.691406 6.015625 -6.488281 6.015625 -6.21875 C 6.015625 -6.164062 6.007812 -6.101562 6 -6.03125 C 6 -5.96875 5.984375 -5.894531 5.953125 -5.8125 L 4.21875 -0.8125 C 4.601562 -0.957031 4.988281 -1.210938 5.375 -1.578125 C 5.769531 -1.941406 6.109375 -2.488281 6.390625 -3.21875 Z M 3.65625 -4.484375 C 3.675781 -4.546875 3.6875 -4.601562 3.6875 -4.65625 C 3.695312 -4.71875 3.703125 -4.773438 3.703125 -4.828125 C 3.703125 -5.078125 3.640625 -5.269531 3.515625 -5.40625 C 3.398438 -5.539062 3.273438 -5.609375 3.140625 -5.609375 C 3.035156 -5.609375 2.929688 -5.570312 2.828125 -5.5 C 2.734375 -5.4375 2.664062 -5.335938 2.625 -5.203125 L 1.578125 -2.078125 C 1.535156 -1.972656 1.515625 -1.875 1.515625 -1.78125 C 1.515625 -1.539062 1.628906 -1.421875 1.859375 -1.421875 C 2.015625 -1.410156 2.191406 -1.476562 2.390625 -1.625 C 2.585938 -1.769531 2.769531 -2.015625 2.9375 -2.359375 Z M 4.171875 1.75 C 4.171875 1.5625 4.113281 1.398438 4 1.265625 C 3.894531 1.128906 3.765625 1.023438 3.609375 0.953125 C 3.546875 1.128906 3.484375 1.300781 3.421875 1.46875 C 3.359375 1.644531 3.296875 1.820312 3.234375 2 C 3.210938 2.050781 3.203125 2.109375 3.203125 2.171875 C 3.203125 2.265625 3.234375 2.335938 3.296875 2.390625 C 3.367188 2.453125 3.457031 2.484375 3.5625 2.484375 C 3.738281 2.484375 3.882812 2.40625 4 2.25 C 4.113281 2.101562 4.171875 1.9375 4.171875 1.75 Z M 4.171875 1.75 "/></g></g></g><g fill="#fffcef" fill-opacity="1"><g transform="translate(172.287573, 211.601383)"><g><path d="M 6.859375 -3.46875 C 6.921875 -3.664062 7.023438 -3.804688 7.171875 -3.890625 C 7.316406 -3.972656 7.460938 -4.015625 7.609375 -4.015625 C 7.796875 -4.015625 7.960938 -3.960938 8.109375 -3.859375 C 8.265625 -3.753906 8.34375 -3.601562 8.34375 -3.40625 C 8.34375 -3.332031 8.332031 -3.265625 8.3125 -3.203125 C 8.03125 -2.367188 7.703125 -1.71875 7.328125 -1.25 C 6.960938 -0.789062 6.582031 -0.46875 6.1875 -0.28125 C 5.789062 -0.09375 5.398438 0 5.015625 0 C 4.648438 0 4.316406 -0.0703125 4.015625 -0.21875 C 3.710938 -0.363281 3.472656 -0.566406 3.296875 -0.828125 C 3.078125 -0.585938 2.828125 -0.390625 2.546875 -0.234375 C 2.273438 -0.078125 1.960938 0 1.609375 0 C 1.265625 0 0.957031 -0.0664062 0.6875 -0.203125 C 0.414062 -0.335938 0.203125 -0.53125 0.046875 -0.78125 C -0.109375 -1.03125 -0.1875 -1.3125 -0.1875 -1.625 C -0.1875 -1.832031 -0.148438 -2.046875 -0.078125 -2.265625 L 1.3125 -6.34375 C 1.40625 -6.582031 1.53125 -6.753906 1.6875 -6.859375 C 1.84375 -6.972656 2.003906 -7.03125 2.171875 -7.03125 C 2.398438 -7.03125 2.601562 -6.953125 2.78125 -6.796875 C 2.957031 -6.648438 3.046875 -6.453125 3.046875 -6.203125 C 3.046875 -6.085938 3.023438 -5.960938 2.984375 -5.828125 L 1.671875 -2.09375 C 1.628906 -1.957031 1.609375 -1.832031 1.609375 -1.71875 C 1.609375 -1.519531 1.703125 -1.421875 1.890625 -1.421875 C 2.128906 -1.421875 2.367188 -1.539062 2.609375 -1.78125 C 2.847656 -2.03125 3.050781 -2.316406 3.21875 -2.640625 L 4.53125 -6.3125 C 4.625 -6.570312 4.75 -6.753906 4.90625 -6.859375 C 5.070312 -6.972656 5.242188 -7.03125 5.421875 -7.03125 C 5.640625 -7.03125 5.832031 -6.953125 6 -6.796875 C 6.175781 -6.648438 6.265625 -6.457031 6.265625 -6.21875 C 6.265625 -6.164062 6.257812 -6.113281 6.25 -6.0625 C 6.25 -6.007812 6.238281 -5.953125 6.21875 -5.890625 L 4.78125 -1.890625 C 4.757812 -1.835938 4.75 -1.78125 4.75 -1.71875 C 4.75 -1.632812 4.78125 -1.5625 4.84375 -1.5 C 4.914062 -1.445312 5.003906 -1.421875 5.109375 -1.421875 C 5.390625 -1.421875 5.679688 -1.582031 5.984375 -1.90625 C 6.296875 -2.226562 6.585938 -2.75 6.859375 -3.46875 Z M 6.859375 -3.46875 "/></g></g></g><g fill="#fffcef" fill-opacity="1"><g transform="translate(178.741406, 211.601383)"><g><path d="M 3.21875 -8.125 C 2.945312 -8.125 2.710938 -8.222656 2.515625 -8.421875 C 2.328125 -8.617188 2.234375 -8.851562 2.234375 -9.125 C 2.234375 -9.394531 2.328125 -9.625 2.515625 -9.8125 C 2.710938 -10 2.945312 -10.09375 3.21875 -10.09375 C 3.488281 -10.09375 3.71875 -10 3.90625 -9.8125 C 4.101562 -9.625 4.203125 -9.394531 4.203125 -9.125 C 4.203125 -8.851562 4.101562 -8.617188 3.90625 -8.421875 C 3.71875 -8.222656 3.488281 -8.125 3.21875 -8.125 Z M 1.609375 -2.015625 C 1.578125 -1.953125 1.5625 -1.890625 1.5625 -1.828125 C 1.5625 -1.710938 1.601562 -1.613281 1.6875 -1.53125 C 1.769531 -1.457031 1.878906 -1.421875 2.015625 -1.421875 C 2.253906 -1.421875 2.523438 -1.566406 2.828125 -1.859375 C 3.128906 -2.160156 3.421875 -2.695312 3.703125 -3.46875 C 3.773438 -3.65625 3.882812 -3.789062 4.03125 -3.875 C 4.175781 -3.96875 4.328125 -4.015625 4.484375 -4.015625 C 4.671875 -4.015625 4.835938 -3.957031 4.984375 -3.84375 C 5.128906 -3.738281 5.203125 -3.59375 5.203125 -3.40625 C 5.203125 -3.332031 5.191406 -3.265625 5.171875 -3.203125 C 4.890625 -2.378906 4.566406 -1.734375 4.203125 -1.265625 C 3.835938 -0.796875 3.453125 -0.46875 3.046875 -0.28125 C 2.648438 -0.09375 2.253906 0 1.859375 0 C 1.492188 0 1.15625 -0.0664062 0.84375 -0.203125 C 0.539062 -0.347656 0.296875 -0.550781 0.109375 -0.8125 C -0.078125 -1.070312 -0.171875 -1.390625 -0.171875 -1.765625 C -0.171875 -1.867188 -0.148438 -1.992188 -0.109375 -2.140625 C -0.0664062 -2.285156 -0.03125 -2.414062 0 -2.53125 C 0.125 -2.90625 0.257812 -3.304688 0.40625 -3.734375 C 0.5625 -4.160156 0.710938 -4.582031 0.859375 -5 C 1.003906 -5.425781 1.140625 -5.828125 1.265625 -6.203125 C 1.359375 -6.484375 1.492188 -6.691406 1.671875 -6.828125 C 1.859375 -6.960938 2.039062 -7.03125 2.21875 -7.03125 C 2.425781 -7.03125 2.613281 -6.960938 2.78125 -6.828125 C 2.945312 -6.691406 3.03125 -6.488281 3.03125 -6.21875 C 3.03125 -6.164062 3.015625 -6.097656 2.984375 -6.015625 C 2.960938 -5.941406 2.941406 -5.863281 2.921875 -5.78125 Z M 1.609375 -2.015625 "/></g></g></g><g fill="#fffcef" fill-opacity="1"><g transform="translate(182.046154, 211.601383)"><g/></g></g><g fill="#fffcef" fill-opacity="1"><g transform="translate(186.620113, 211.601383)"><g><path d="M 6.671875 -3.453125 C 6.742188 -3.648438 6.851562 -3.789062 7 -3.875 C 7.15625 -3.96875 7.316406 -4.015625 7.484375 -4.015625 C 7.660156 -4.015625 7.820312 -3.960938 7.96875 -3.859375 C 8.113281 -3.765625 8.1875 -3.625 8.1875 -3.4375 C 8.1875 -3.351562 8.164062 -3.257812 8.125 -3.15625 C 7.851562 -2.382812 7.535156 -1.765625 7.171875 -1.296875 C 6.804688 -0.835938 6.414062 -0.503906 6 -0.296875 C 5.59375 -0.0976562 5.1875 0 4.78125 0 C 4.4375 0 4.117188 -0.0625 3.828125 -0.1875 C 3.535156 -0.320312 3.296875 -0.515625 3.109375 -0.765625 C 2.929688 -1.015625 2.84375 -1.320312 2.84375 -1.6875 C 2.84375 -1.8125 2.859375 -1.941406 2.890625 -2.078125 C 2.921875 -2.210938 2.957031 -2.347656 3 -2.484375 L 3.875 -4.9375 C 3.914062 -5.0625 3.9375 -5.164062 3.9375 -5.25 C 3.9375 -5.351562 3.898438 -5.4375 3.828125 -5.5 C 3.765625 -5.570312 3.675781 -5.609375 3.5625 -5.609375 C 3.394531 -5.609375 3.210938 -5.535156 3.015625 -5.390625 C 2.828125 -5.253906 2.648438 -5.035156 2.484375 -4.734375 C 2.347656 -4.347656 2.195312 -3.921875 2.03125 -3.453125 C 1.875 -2.984375 1.710938 -2.515625 1.546875 -2.046875 C 1.378906 -1.585938 1.226562 -1.164062 1.09375 -0.78125 C 1 -0.507812 0.847656 -0.304688 0.640625 -0.171875 C 0.429688 -0.0351562 0.222656 0.03125 0.015625 0.03125 C -0.179688 0.03125 -0.351562 -0.0234375 -0.5 -0.140625 C -0.644531 -0.253906 -0.71875 -0.421875 -0.71875 -0.640625 C -0.71875 -0.742188 -0.703125 -0.847656 -0.671875 -0.953125 L 1.328125 -6.53125 C 1.390625 -6.695312 1.492188 -6.820312 1.640625 -6.90625 C 1.785156 -6.988281 1.941406 -7.03125 2.109375 -7.03125 C 2.265625 -7.03125 2.410156 -7 2.546875 -6.9375 C 2.679688 -6.882812 2.765625 -6.800781 2.796875 -6.6875 C 3.097656 -6.914062 3.484375 -7.03125 3.953125 -7.03125 C 4.265625 -7.03125 4.554688 -6.953125 4.828125 -6.796875 C 5.097656 -6.648438 5.3125 -6.453125 5.46875 -6.203125 C 5.632812 -5.953125 5.71875 -5.664062 5.71875 -5.34375 C 5.71875 -5.15625 5.675781 -4.9375 5.59375 -4.6875 L 4.65625 -2.03125 C 4.613281 -1.894531 4.59375 -1.796875 4.59375 -1.734375 C 4.59375 -1.523438 4.707031 -1.421875 4.9375 -1.421875 C 5.207031 -1.421875 5.5 -1.578125 5.8125 -1.890625 C 6.125 -2.210938 6.410156 -2.734375 6.671875 -3.453125 Z M 6.671875 -3.453125 "/></g></g></g><g fill="#fffcef" fill-opacity="1"><g transform="translate(192.906315, 211.601383)"><g><path d="M 6.0625 -3.375 C 6.113281 -3.5625 6.21875 -3.695312 6.375 -3.78125 C 6.53125 -3.875 6.691406 -3.921875 6.859375 -3.921875 C 7.046875 -3.921875 7.207031 -3.867188 7.34375 -3.765625 C 7.476562 -3.671875 7.546875 -3.53125 7.546875 -3.34375 C 7.546875 -3.269531 7.53125 -3.1875 7.5 -3.09375 C 7.238281 -2.34375 6.875 -1.738281 6.40625 -1.28125 C 5.9375 -0.820312 5.414062 -0.492188 4.84375 -0.296875 C 4.28125 -0.0976562 3.71875 0 3.15625 0 C 2.570312 0 2.046875 -0.09375 1.578125 -0.28125 C 1.117188 -0.46875 0.753906 -0.734375 0.484375 -1.078125 C 0.210938 -1.429688 0.078125 -1.84375 0.078125 -2.3125 C 0.078125 -2.445312 0.0859375 -2.582031 0.109375 -2.71875 C 0.140625 -2.863281 0.179688 -3.007812 0.234375 -3.15625 L 0.9375 -5.203125 C 1.144531 -5.804688 1.484375 -6.257812 1.953125 -6.5625 C 2.421875 -6.875 2.921875 -7.03125 3.453125 -7.03125 C 3.910156 -7.03125 4.304688 -6.941406 4.640625 -6.765625 C 4.972656 -6.585938 5.234375 -6.347656 5.421875 -6.046875 C 5.609375 -5.742188 5.703125 -5.398438 5.703125 -5.015625 C 5.703125 -4.816406 5.671875 -4.597656 5.609375 -4.359375 C 5.453125 -3.828125 5.15625 -3.398438 4.71875 -3.078125 C 4.28125 -2.753906 3.789062 -2.59375 3.25 -2.59375 C 3.007812 -2.59375 2.78125 -2.625 2.5625 -2.6875 C 2.351562 -2.757812 2.160156 -2.847656 1.984375 -2.953125 L 1.890625 -2.734375 C 1.867188 -2.671875 1.851562 -2.613281 1.84375 -2.5625 C 1.832031 -2.507812 1.828125 -2.453125 1.828125 -2.390625 C 1.828125 -2.117188 1.953125 -1.890625 2.203125 -1.703125 C 2.460938 -1.515625 2.8125 -1.421875 3.25 -1.421875 C 3.59375 -1.421875 3.945312 -1.484375 4.3125 -1.609375 C 4.675781 -1.742188 5.015625 -1.957031 5.328125 -2.25 C 5.640625 -2.539062 5.882812 -2.914062 6.0625 -3.375 Z M 3.421875 -5.609375 C 3.285156 -5.609375 3.148438 -5.554688 3.015625 -5.453125 C 2.878906 -5.347656 2.78125 -5.207031 2.71875 -5.03125 L 2.46875 -4.3125 C 2.632812 -4.21875 2.84375 -4.171875 3.09375 -4.171875 C 3.269531 -4.171875 3.4375 -4.207031 3.59375 -4.28125 C 3.757812 -4.363281 3.867188 -4.503906 3.921875 -4.703125 C 3.953125 -4.785156 3.96875 -4.878906 3.96875 -4.984375 C 3.96875 -5.160156 3.914062 -5.304688 3.8125 -5.421875 C 3.71875 -5.546875 3.585938 -5.609375 3.421875 -5.609375 Z M 3.421875 -5.609375 "/></g></g></g><g fill="#fffcef" fill-opacity="1"><g transform="translate(198.581852, 211.601383)"><g/></g></g><g fill="#fffcef" fill-opacity="1"><g transform="translate(203.15581, 211.601383)"><g><path d="M 6.359375 -3.390625 C 6.421875 -3.566406 6.515625 -3.691406 6.640625 -3.765625 C 6.773438 -3.835938 6.914062 -3.875 7.0625 -3.875 C 7.25 -3.875 7.425781 -3.816406 7.59375 -3.703125 C 7.757812 -3.597656 7.84375 -3.457031 7.84375 -3.28125 C 7.84375 -3.257812 7.84375 -3.234375 7.84375 -3.203125 C 7.84375 -3.171875 7.832031 -3.144531 7.8125 -3.125 C 7.53125 -2.320312 7.144531 -1.6875 6.65625 -1.21875 C 6.175781 -0.75 5.625 -0.414062 5 -0.21875 C 4.375 -0.0195312 3.71875 0.078125 3.03125 0.078125 C 2.320312 0.078125 1.722656 -0.0078125 1.234375 -0.1875 C 0.742188 -0.375 0.367188 -0.625 0.109375 -0.9375 C -0.140625 -1.25 -0.265625 -1.601562 -0.265625 -2 C -0.265625 -2.25 -0.21875 -2.503906 -0.125 -2.765625 C -0.0390625 -3.035156 0.0859375 -3.269531 0.265625 -3.46875 C 0.441406 -3.675781 0.664062 -3.8125 0.9375 -3.875 C 1.175781 -4.320312 1.414062 -4.773438 1.65625 -5.234375 C 1.90625 -5.691406 2.144531 -6.148438 2.375 -6.609375 C 2.488281 -6.835938 2.648438 -7.007812 2.859375 -7.125 C 3.078125 -7.238281 3.296875 -7.296875 3.515625 -7.296875 C 3.816406 -7.296875 4.054688 -7.191406 4.234375 -6.984375 C 4.421875 -6.785156 4.515625 -6.5625 4.515625 -6.3125 C 4.515625 -6.132812 4.457031 -5.957031 4.34375 -5.78125 C 4.226562 -5.613281 4.082031 -5.492188 3.90625 -5.421875 C 3.9375 -5.234375 4.003906 -5.039062 4.109375 -4.84375 C 4.210938 -4.644531 4.320312 -4.441406 4.4375 -4.234375 C 4.601562 -3.953125 4.757812 -3.648438 4.90625 -3.328125 C 5.0625 -3.003906 5.140625 -2.671875 5.140625 -2.328125 C 5.140625 -2.242188 5.132812 -2.164062 5.125 -2.09375 C 5.125 -2.019531 5.113281 -1.941406 5.09375 -1.859375 C 5.375 -2.023438 5.617188 -2.234375 5.828125 -2.484375 C 6.035156 -2.734375 6.210938 -3.035156 6.359375 -3.390625 Z M 2.5625 -3.703125 C 2.664062 -3.609375 2.738281 -3.492188 2.78125 -3.359375 C 2.832031 -3.222656 2.859375 -3.085938 2.859375 -2.953125 C 2.859375 -2.660156 2.757812 -2.390625 2.5625 -2.140625 C 2.375 -1.898438 2.109375 -1.78125 1.765625 -1.78125 C 1.722656 -1.78125 1.675781 -1.78125 1.625 -1.78125 C 1.582031 -1.789062 1.535156 -1.800781 1.484375 -1.8125 C 1.546875 -1.65625 1.660156 -1.53125 1.828125 -1.4375 C 1.992188 -1.351562 2.175781 -1.3125 2.375 -1.3125 C 2.695312 -1.332031 2.929688 -1.441406 3.078125 -1.640625 C 3.234375 -1.847656 3.3125 -2.09375 3.3125 -2.375 C 3.3125 -2.644531 3.25 -2.914062 3.125 -3.1875 C 3 -3.46875 2.847656 -3.71875 2.671875 -3.9375 Z M 2.5625 -3.703125 "/></g></g></g><g fill="#fffcef" fill-opacity="1"><g transform="translate(209.130685, 211.601383)"><g><path d="M 3.65625 -11.375 C 3.882812 -11.269531 4.046875 -11.117188 4.140625 -10.921875 C 4.234375 -10.722656 4.28125 -10.515625 4.28125 -10.296875 C 4.28125 -10.085938 4.253906 -9.90625 4.203125 -9.75 C 4.078125 -9.40625 3.851562 -9.128906 3.53125 -8.921875 C 3.207031 -8.722656 2.832031 -8.625 2.40625 -8.625 C 2.332031 -8.625 2.253906 -8.628906 2.171875 -8.640625 C 2.097656 -8.648438 2.015625 -8.660156 1.921875 -8.671875 C 1.753906 -8.710938 1.640625 -8.785156 1.578125 -8.890625 C 1.523438 -8.992188 1.515625 -9.097656 1.546875 -9.203125 C 1.578125 -9.316406 1.644531 -9.40625 1.75 -9.46875 C 1.851562 -9.53125 1.984375 -9.539062 2.140625 -9.5 C 2.367188 -9.445312 2.5625 -9.492188 2.71875 -9.640625 C 2.644531 -9.679688 2.570312 -9.734375 2.5 -9.796875 C 2.425781 -9.859375 2.367188 -9.929688 2.328125 -10.015625 C 2.234375 -10.171875 2.1875 -10.335938 2.1875 -10.515625 C 2.1875 -10.867188 2.347656 -11.148438 2.671875 -11.359375 C 2.753906 -11.410156 2.835938 -11.441406 2.921875 -11.453125 C 3.015625 -11.472656 3.101562 -11.484375 3.1875 -11.484375 C 3.332031 -11.484375 3.472656 -11.453125 3.609375 -11.390625 L 3.609375 -11.40625 Z M 3.65625 -11.375 "/></g></g></g><g fill="#fffcef" fill-opacity="1"><g transform="translate(210.795026, 211.601383)"><g><path d="M 5.0625 -2.5 C 5.082031 -2.488281 5.109375 -2.484375 5.140625 -2.484375 C 5.171875 -2.484375 5.203125 -2.484375 5.234375 -2.484375 C 5.578125 -2.484375 5.882812 -2.601562 6.15625 -2.84375 C 6.425781 -3.082031 6.625 -3.382812 6.75 -3.75 C 6.8125 -3.96875 6.914062 -4.125 7.0625 -4.21875 C 7.21875 -4.320312 7.378906 -4.375 7.546875 -4.375 C 7.710938 -4.375 7.863281 -4.3125 8 -4.1875 C 8.132812 -4.070312 8.203125 -3.90625 8.203125 -3.6875 C 8.203125 -3.59375 8.1875 -3.472656 8.15625 -3.328125 C 8.019531 -2.910156 7.8125 -2.53125 7.53125 -2.1875 C 7.25 -1.84375 6.910156 -1.566406 6.515625 -1.359375 C 6.117188 -1.160156 5.6875 -1.0625 5.21875 -1.0625 C 4.96875 -1.0625 4.726562 -1.09375 4.5 -1.15625 C 4.25 -0.726562 3.921875 -0.425781 3.515625 -0.25 C 3.117188 -0.0820312 2.6875 0 2.21875 0 C 1.8125 0 1.429688 -0.078125 1.078125 -0.234375 C 0.734375 -0.398438 0.453125 -0.632812 0.234375 -0.9375 C 0.0234375 -1.238281 -0.078125 -1.597656 -0.078125 -2.015625 C -0.078125 -2.148438 -0.0664062 -2.285156 -0.046875 -2.421875 C -0.0234375 -2.566406 0.015625 -2.71875 0.078125 -2.875 L 0.953125 -5.34375 C 1.078125 -5.695312 1.269531 -6 1.53125 -6.25 C 1.789062 -6.5 2.09375 -6.691406 2.4375 -6.828125 C 2.78125 -6.960938 3.140625 -7.03125 3.515625 -7.03125 C 3.953125 -7.03125 4.34375 -6.941406 4.6875 -6.765625 C 5.03125 -6.597656 5.300781 -6.359375 5.5 -6.046875 C 5.707031 -5.742188 5.8125 -5.390625 5.8125 -4.984375 C 5.8125 -4.828125 5.78125 -4.625 5.71875 -4.375 C 5.65625 -4.132812 5.578125 -3.898438 5.484375 -3.671875 C 5.398438 -3.441406 5.320312 -3.273438 5.25 -3.171875 C 5.175781 -3.054688 5.097656 -2.96875 5.015625 -2.90625 C 5.035156 -2.789062 5.046875 -2.691406 5.046875 -2.609375 C 5.054688 -2.523438 5.0625 -2.488281 5.0625 -2.5 Z M 3.953125 -4.34375 C 3.992188 -4.46875 4.03125 -4.597656 4.0625 -4.734375 C 4.09375 -4.867188 4.109375 -4.988281 4.109375 -5.09375 C 4.109375 -5.226562 4.050781 -5.347656 3.9375 -5.453125 C 3.820312 -5.554688 3.675781 -5.609375 3.5 -5.609375 C 3.3125 -5.609375 3.125 -5.554688 2.9375 -5.453125 C 2.757812 -5.347656 2.632812 -5.191406 2.5625 -4.984375 L 1.71875 -2.5625 C 1.6875 -2.507812 1.660156 -2.429688 1.640625 -2.328125 C 1.617188 -2.222656 1.609375 -2.113281 1.609375 -2 C 1.609375 -1.851562 1.644531 -1.71875 1.71875 -1.59375 C 1.800781 -1.476562 1.957031 -1.421875 2.1875 -1.421875 C 2.375 -1.421875 2.546875 -1.472656 2.703125 -1.578125 C 2.859375 -1.679688 2.976562 -1.835938 3.0625 -2.046875 C 2.945312 -2.140625 2.847656 -2.25 2.765625 -2.375 C 2.679688 -2.5 2.632812 -2.660156 2.625 -2.859375 C 2.625 -3.097656 2.679688 -3.3125 2.796875 -3.5 C 2.910156 -3.6875 3.0625 -3.828125 3.25 -3.921875 C 3.445312 -4.023438 3.648438 -4.066406 3.859375 -4.046875 C 3.867188 -4.097656 3.878906 -4.144531 3.890625 -4.1875 C 3.910156 -4.238281 3.929688 -4.289062 3.953125 -4.34375 Z M 3.953125 -4.34375 "/></g></g></g><g fill="#fffcef" fill-opacity="1"><g transform="translate(217.045304, 211.601383)"><g><path d="M 6.859375 -3.46875 C 6.921875 -3.664062 7.023438 -3.804688 7.171875 -3.890625 C 7.316406 -3.972656 7.460938 -4.015625 7.609375 -4.015625 C 7.796875 -4.015625 7.960938 -3.960938 8.109375 -3.859375 C 8.265625 -3.753906 8.34375 -3.601562 8.34375 -3.40625 C 8.34375 -3.332031 8.332031 -3.265625 8.3125 -3.203125 C 8.03125 -2.367188 7.703125 -1.71875 7.328125 -1.25 C 6.960938 -0.789062 6.582031 -0.46875 6.1875 -0.28125 C 5.789062 -0.09375 5.398438 0 5.015625 0 C 4.648438 0 4.316406 -0.0703125 4.015625 -0.21875 C 3.710938 -0.363281 3.472656 -0.566406 3.296875 -0.828125 C 3.078125 -0.585938 2.828125 -0.390625 2.546875 -0.234375 C 2.273438 -0.078125 1.960938 0 1.609375 0 C 1.265625 0 0.957031 -0.0664062 0.6875 -0.203125 C 0.414062 -0.335938 0.203125 -0.53125 0.046875 -0.78125 C -0.109375 -1.03125 -0.1875 -1.3125 -0.1875 -1.625 C -0.1875 -1.832031 -0.148438 -2.046875 -0.078125 -2.265625 L 1.3125 -6.34375 C 1.40625 -6.582031 1.53125 -6.753906 1.6875 -6.859375 C 1.84375 -6.972656 2.003906 -7.03125 2.171875 -7.03125 C 2.398438 -7.03125 2.601562 -6.953125 2.78125 -6.796875 C 2.957031 -6.648438 3.046875 -6.453125 3.046875 -6.203125 C 3.046875 -6.085938 3.023438 -5.960938 2.984375 -5.828125 L 1.671875 -2.09375 C 1.628906 -1.957031 1.609375 -1.832031 1.609375 -1.71875 C 1.609375 -1.519531 1.703125 -1.421875 1.890625 -1.421875 C 2.128906 -1.421875 2.367188 -1.539062 2.609375 -1.78125 C 2.847656 -2.03125 3.050781 -2.316406 3.21875 -2.640625 L 4.53125 -6.3125 C 4.625 -6.570312 4.75 -6.753906 4.90625 -6.859375 C 5.070312 -6.972656 5.242188 -7.03125 5.421875 -7.03125 C 5.640625 -7.03125 5.832031 -6.953125 6 -6.796875 C 6.175781 -6.648438 6.265625 -6.457031 6.265625 -6.21875 C 6.265625 -6.164062 6.257812 -6.113281 6.25 -6.0625 C 6.25 -6.007812 6.238281 -5.953125 6.21875 -5.890625 L 4.78125 -1.890625 C 4.757812 -1.835938 4.75 -1.78125 4.75 -1.71875 C 4.75 -1.632812 4.78125 -1.5625 4.84375 -1.5 C 4.914062 -1.445312 5.003906 -1.421875 5.109375 -1.421875 C 5.390625 -1.421875 5.679688 -1.582031 5.984375 -1.90625 C 6.296875 -2.226562 6.585938 -2.75 6.859375 -3.46875 Z M 6.859375 -3.46875 "/></g></g></g><g fill="#fffcef" fill-opacity="1"><g transform="translate(223.499137, 211.601383)"><g><path d="M 6.5 -3.8125 C 6.550781 -3.945312 6.632812 -4.046875 6.75 -4.109375 C 6.875 -4.179688 7 -4.21875 7.125 -4.21875 C 7.320312 -4.21875 7.503906 -4.15625 7.671875 -4.03125 C 7.847656 -3.914062 7.9375 -3.757812 7.9375 -3.5625 C 7.9375 -3.507812 7.925781 -3.445312 7.90625 -3.375 C 7.757812 -2.914062 7.53125 -2.53125 7.21875 -2.21875 C 6.914062 -1.90625 6.5625 -1.664062 6.15625 -1.5 C 5.75 -1.332031 5.335938 -1.25 4.921875 -1.25 C 4.765625 -1.25 4.613281 -1.265625 4.46875 -1.296875 C 4.207031 -0.816406 3.859375 -0.476562 3.421875 -0.28125 C 2.984375 -0.09375 2.546875 0 2.109375 0 C 1.710938 0 1.335938 -0.0703125 0.984375 -0.21875 C 0.640625 -0.375 0.359375 -0.597656 0.140625 -0.890625 C -0.0664062 -1.191406 -0.171875 -1.5625 -0.171875 -2 C -0.171875 -2.300781 -0.113281 -2.609375 0 -2.921875 C 0.257812 -3.660156 0.515625 -4.382812 0.765625 -5.09375 C 1.015625 -5.8125 1.269531 -6.546875 1.53125 -7.296875 C 1.789062 -8.046875 2.066406 -8.835938 2.359375 -9.671875 C 2.441406 -9.921875 2.566406 -10.101562 2.734375 -10.21875 C 2.898438 -10.332031 3.070312 -10.390625 3.25 -10.390625 C 3.457031 -10.390625 3.644531 -10.320312 3.8125 -10.1875 C 3.988281 -10.050781 4.078125 -9.851562 4.078125 -9.59375 C 4.078125 -9.53125 4.066406 -9.460938 4.046875 -9.390625 C 4.035156 -9.328125 4.019531 -9.257812 4 -9.1875 L 3.21875 -6.9375 C 3.394531 -7 3.585938 -7.03125 3.796875 -7.03125 C 4.148438 -7.03125 4.472656 -6.945312 4.765625 -6.78125 C 5.054688 -6.613281 5.289062 -6.382812 5.46875 -6.09375 C 5.644531 -5.800781 5.734375 -5.460938 5.734375 -5.078125 C 5.734375 -4.773438 5.671875 -4.460938 5.546875 -4.140625 L 5.015625 -2.6875 L 5.078125 -2.6875 C 5.390625 -2.6875 5.671875 -2.785156 5.921875 -2.984375 C 6.179688 -3.191406 6.375 -3.46875 6.5 -3.8125 Z M 2.9375 -2.0625 C 2.6875 -2.351562 2.5625 -2.675781 2.5625 -3.03125 C 2.5625 -3.332031 2.660156 -3.585938 2.859375 -3.796875 C 3.066406 -4.015625 3.316406 -4.125 3.609375 -4.125 C 3.648438 -4.125 3.664062 -4.125 3.65625 -4.125 C 3.644531 -4.132812 3.65625 -4.132812 3.6875 -4.125 L 3.9375 -4.828125 C 3.96875 -4.921875 3.984375 -5.015625 3.984375 -5.109375 C 3.984375 -5.265625 3.9375 -5.382812 3.84375 -5.46875 C 3.75 -5.5625 3.617188 -5.609375 3.453125 -5.609375 C 3.285156 -5.609375 3.113281 -5.539062 2.9375 -5.40625 C 2.757812 -5.269531 2.609375 -5.09375 2.484375 -4.875 C 2.335938 -4.414062 2.191406 -3.984375 2.046875 -3.578125 C 1.898438 -3.179688 1.75 -2.757812 1.59375 -2.3125 C 1.570312 -2.25 1.554688 -2.1875 1.546875 -2.125 C 1.535156 -2.0625 1.53125 -2.003906 1.53125 -1.953125 C 1.53125 -1.785156 1.582031 -1.65625 1.6875 -1.5625 C 1.789062 -1.46875 1.929688 -1.421875 2.109375 -1.421875 C 2.265625 -1.421875 2.421875 -1.457031 2.578125 -1.53125 C 2.734375 -1.613281 2.847656 -1.757812 2.921875 -1.96875 Z M 2.9375 -2.0625 "/></g></g></g><g fill="#fffcef" fill-opacity="1"><g transform="translate(229.474012, 211.601383)"><g><path d="M 1.640625 -1.953125 C 1.628906 -1.921875 1.617188 -1.882812 1.609375 -1.84375 C 1.597656 -1.800781 1.59375 -1.769531 1.59375 -1.75 C 1.59375 -1.65625 1.625 -1.578125 1.6875 -1.515625 C 1.75 -1.453125 1.84375 -1.421875 1.96875 -1.421875 C 2.238281 -1.421875 2.535156 -1.582031 2.859375 -1.90625 C 3.179688 -2.226562 3.484375 -2.75 3.765625 -3.46875 C 3.847656 -3.695312 3.960938 -3.859375 4.109375 -3.953125 C 4.253906 -4.046875 4.398438 -4.09375 4.546875 -4.09375 C 4.734375 -4.09375 4.894531 -4.03125 5.03125 -3.90625 C 5.175781 -3.78125 5.25 -3.625 5.25 -3.4375 C 5.25 -3.363281 5.238281 -3.285156 5.21875 -3.203125 C 4.9375 -2.367188 4.601562 -1.71875 4.21875 -1.25 C 3.832031 -0.789062 3.429688 -0.46875 3.015625 -0.28125 C 2.597656 -0.09375 2.195312 0 1.8125 0 C 1.46875 0 1.144531 -0.0625 0.84375 -0.1875 C 0.539062 -0.320312 0.300781 -0.515625 0.125 -0.765625 C -0.0507812 -1.023438 -0.140625 -1.34375 -0.140625 -1.71875 C -0.140625 -1.957031 -0.09375 -2.210938 0 -2.484375 L 2.484375 -9.59375 C 2.671875 -10.125 2.988281 -10.390625 3.4375 -10.390625 C 3.613281 -10.390625 3.785156 -10.320312 3.953125 -10.1875 C 4.128906 -10.050781 4.21875 -9.867188 4.21875 -9.640625 C 4.21875 -9.503906 4.195312 -9.367188 4.15625 -9.234375 Z M 1.640625 -1.953125 "/></g></g></g><g fill="#fffcef" fill-opacity="1"><g transform="translate(232.814673, 211.601383)"><g><path d="M 3.21875 -8.125 C 2.945312 -8.125 2.710938 -8.222656 2.515625 -8.421875 C 2.328125 -8.617188 2.234375 -8.851562 2.234375 -9.125 C 2.234375 -9.394531 2.328125 -9.625 2.515625 -9.8125 C 2.710938 -10 2.945312 -10.09375 3.21875 -10.09375 C 3.488281 -10.09375 3.71875 -10 3.90625 -9.8125 C 4.101562 -9.625 4.203125 -9.394531 4.203125 -9.125 C 4.203125 -8.851562 4.101562 -8.617188 3.90625 -8.421875 C 3.71875 -8.222656 3.488281 -8.125 3.21875 -8.125 Z M 1.609375 -2.015625 C 1.578125 -1.953125 1.5625 -1.890625 1.5625 -1.828125 C 1.5625 -1.710938 1.601562 -1.613281 1.6875 -1.53125 C 1.769531 -1.457031 1.878906 -1.421875 2.015625 -1.421875 C 2.253906 -1.421875 2.523438 -1.566406 2.828125 -1.859375 C 3.128906 -2.160156 3.421875 -2.695312 3.703125 -3.46875 C 3.773438 -3.65625 3.882812 -3.789062 4.03125 -3.875 C 4.175781 -3.96875 4.328125 -4.015625 4.484375 -4.015625 C 4.671875 -4.015625 4.835938 -3.957031 4.984375 -3.84375 C 5.128906 -3.738281 5.203125 -3.59375 5.203125 -3.40625 C 5.203125 -3.332031 5.191406 -3.265625 5.171875 -3.203125 C 4.890625 -2.378906 4.566406 -1.734375 4.203125 -1.265625 C 3.835938 -0.796875 3.453125 -0.46875 3.046875 -0.28125 C 2.648438 -0.09375 2.253906 0 1.859375 0 C 1.492188 0 1.15625 -0.0664062 0.84375 -0.203125 C 0.539062 -0.347656 0.296875 -0.550781 0.109375 -0.8125 C -0.078125 -1.070312 -0.171875 -1.390625 -0.171875 -1.765625 C -0.171875 -1.867188 -0.148438 -1.992188 -0.109375 -2.140625 C -0.0664062 -2.285156 -0.03125 -2.414062 0 -2.53125 C 0.125 -2.90625 0.257812 -3.304688 0.40625 -3.734375 C 0.5625 -4.160156 0.710938 -4.582031 0.859375 -5 C 1.003906 -5.425781 1.140625 -5.828125 1.265625 -6.203125 C 1.359375 -6.484375 1.492188 -6.691406 1.671875 -6.828125 C 1.859375 -6.960938 2.039062 -7.03125 2.21875 -7.03125 C 2.425781 -7.03125 2.613281 -6.960938 2.78125 -6.828125 C 2.945312 -6.691406 3.03125 -6.488281 3.03125 -6.21875 C 3.03125 -6.164062 3.015625 -6.097656 2.984375 -6.015625 C 2.960938 -5.941406 2.941406 -5.863281 2.921875 -5.78125 Z M 1.609375 -2.015625 "/></g></g></g><g fill="#fffcef" fill-opacity="1"><g transform="translate(236.119422, 211.601383)"><g><path d="M 6.0625 -3.375 C 6.113281 -3.5625 6.21875 -3.695312 6.375 -3.78125 C 6.53125 -3.875 6.691406 -3.921875 6.859375 -3.921875 C 7.046875 -3.921875 7.207031 -3.867188 7.34375 -3.765625 C 7.476562 -3.671875 7.546875 -3.53125 7.546875 -3.34375 C 7.546875 -3.269531 7.53125 -3.1875 7.5 -3.09375 C 7.238281 -2.34375 6.875 -1.738281 6.40625 -1.28125 C 5.9375 -0.820312 5.414062 -0.492188 4.84375 -0.296875 C 4.28125 -0.0976562 3.71875 0 3.15625 0 C 2.570312 0 2.046875 -0.09375 1.578125 -0.28125 C 1.117188 -0.46875 0.753906 -0.734375 0.484375 -1.078125 C 0.210938 -1.429688 0.078125 -1.84375 0.078125 -2.3125 C 0.078125 -2.445312 0.0859375 -2.582031 0.109375 -2.71875 C 0.140625 -2.863281 0.179688 -3.007812 0.234375 -3.15625 L 0.9375 -5.203125 C 1.144531 -5.804688 1.484375 -6.257812 1.953125 -6.5625 C 2.421875 -6.875 2.921875 -7.03125 3.453125 -7.03125 C 3.910156 -7.03125 4.304688 -6.941406 4.640625 -6.765625 C 4.972656 -6.585938 5.234375 -6.347656 5.421875 -6.046875 C 5.609375 -5.742188 5.703125 -5.398438 5.703125 -5.015625 C 5.703125 -4.816406 5.671875 -4.597656 5.609375 -4.359375 C 5.453125 -3.828125 5.15625 -3.398438 4.71875 -3.078125 C 4.28125 -2.753906 3.789062 -2.59375 3.25 -2.59375 C 3.007812 -2.59375 2.78125 -2.625 2.5625 -2.6875 C 2.351562 -2.757812 2.160156 -2.847656 1.984375 -2.953125 L 1.890625 -2.734375 C 1.867188 -2.671875 1.851562 -2.613281 1.84375 -2.5625 C 1.832031 -2.507812 1.828125 -2.453125 1.828125 -2.390625 C 1.828125 -2.117188 1.953125 -1.890625 2.203125 -1.703125 C 2.460938 -1.515625 2.8125 -1.421875 3.25 -1.421875 C 3.59375 -1.421875 3.945312 -1.484375 4.3125 -1.609375 C 4.675781 -1.742188 5.015625 -1.957031 5.328125 -2.25 C 5.640625 -2.539062 5.882812 -2.914062 6.0625 -3.375 Z M 3.421875 -5.609375 C 3.285156 -5.609375 3.148438 -5.554688 3.015625 -5.453125 C 2.878906 -5.347656 2.78125 -5.207031 2.71875 -5.03125 L 2.46875 -4.3125 C 2.632812 -4.21875 2.84375 -4.171875 3.09375 -4.171875 C 3.269531 -4.171875 3.4375 -4.207031 3.59375 -4.28125 C 3.757812 -4.363281 3.867188 -4.503906 3.921875 -4.703125 C 3.953125 -4.785156 3.96875 -4.878906 3.96875 -4.984375 C 3.96875 -5.160156 3.914062 -5.304688 3.8125 -5.421875 C 3.71875 -5.546875 3.585938 -5.609375 3.421875 -5.609375 Z M 3.421875 -5.609375 "/></g></g></g><g fill="#fffcef" fill-opacity="1"><g transform="translate(241.794959, 211.601383)"><g/></g></g><g fill="#fffcef" fill-opacity="1"><g transform="translate(246.368917, 211.601383)"><g><path d="M 6.515625 -3.453125 C 6.585938 -3.679688 6.703125 -3.847656 6.859375 -3.953125 C 7.023438 -4.054688 7.1875 -4.109375 7.34375 -4.109375 C 7.53125 -4.109375 7.691406 -4.050781 7.828125 -3.9375 C 7.972656 -3.820312 8.046875 -3.664062 8.046875 -3.46875 C 8.046875 -3.394531 8.023438 -3.300781 7.984375 -3.1875 C 7.585938 -2.050781 6.972656 -1.234375 6.140625 -0.734375 C 5.304688 -0.242188 4.304688 0 3.140625 0 C 2.128906 0 1.429688 -0.144531 1.046875 -0.4375 L 0.09375 2.390625 C 0.0195312 2.617188 -0.0976562 2.78125 -0.265625 2.875 C -0.441406 2.976562 -0.632812 3.03125 -0.84375 3.03125 C -1.050781 3.03125 -1.238281 2.96875 -1.40625 2.84375 C -1.582031 2.71875 -1.671875 2.53125 -1.671875 2.28125 C -1.671875 2.15625 -1.644531 2.019531 -1.59375 1.875 L 1.390625 -6.546875 C 1.472656 -6.804688 1.601562 -6.988281 1.78125 -7.09375 C 1.957031 -7.207031 2.144531 -7.265625 2.34375 -7.265625 C 2.5625 -7.265625 2.753906 -7.210938 2.921875 -7.109375 C 3.085938 -7.015625 3.160156 -6.894531 3.140625 -6.75 C 3.273438 -6.863281 3.429688 -6.9375 3.609375 -6.96875 C 3.785156 -7.007812 3.957031 -7.03125 4.125 -7.03125 C 4.425781 -7.03125 4.707031 -6.945312 4.96875 -6.78125 C 5.238281 -6.613281 5.453125 -6.394531 5.609375 -6.125 C 5.773438 -5.851562 5.859375 -5.554688 5.859375 -5.234375 C 5.859375 -5.023438 5.820312 -4.816406 5.75 -4.609375 C 5.582031 -4.140625 5.410156 -3.664062 5.234375 -3.1875 C 5.066406 -2.707031 4.898438 -2.238281 4.734375 -1.78125 L 4.625 -1.53125 C 5.039062 -1.6875 5.410156 -1.921875 5.734375 -2.234375 C 6.066406 -2.554688 6.328125 -2.960938 6.515625 -3.453125 Z M 1.6875 -2.203125 C 1.65625 -2.117188 1.640625 -2.023438 1.640625 -1.921875 C 1.640625 -1.753906 1.691406 -1.628906 1.796875 -1.546875 C 1.910156 -1.460938 2.039062 -1.421875 2.1875 -1.421875 C 2.34375 -1.429688 2.492188 -1.488281 2.640625 -1.59375 C 2.796875 -1.695312 2.90625 -1.835938 2.96875 -2.015625 C 3.125 -2.484375 3.285156 -2.941406 3.453125 -3.390625 C 3.617188 -3.835938 3.773438 -4.300781 3.921875 -4.78125 C 3.960938 -4.914062 3.984375 -5.023438 3.984375 -5.109375 C 3.984375 -5.265625 3.925781 -5.382812 3.8125 -5.46875 C 3.707031 -5.5625 3.582031 -5.609375 3.4375 -5.609375 C 3.269531 -5.609375 3.113281 -5.554688 2.96875 -5.453125 C 2.820312 -5.347656 2.710938 -5.191406 2.640625 -4.984375 Z M 1.6875 -2.203125 "/></g></g></g><g fill="#fffcef" fill-opacity="1"><g transform="translate(252.499455, 211.601383)"><g><path d="M 7.5 -4.046875 C 7.675781 -4.046875 7.828125 -3.992188 7.953125 -3.890625 C 8.085938 -3.785156 8.15625 -3.628906 8.15625 -3.421875 C 8.15625 -3.316406 8.128906 -3.179688 8.078125 -3.015625 C 8.023438 -2.859375 7.953125 -2.664062 7.859375 -2.4375 C 7.609375 -1.789062 7.304688 -1.289062 6.953125 -0.9375 C 6.597656 -0.59375 6.226562 -0.347656 5.84375 -0.203125 C 5.46875 -0.0664062 5.113281 0 4.78125 0 C 4.65625 0 4.488281 -0.015625 4.28125 -0.046875 C 4.082031 -0.078125 3.878906 -0.140625 3.671875 -0.234375 C 3.472656 -0.328125 3.3125 -0.460938 3.1875 -0.640625 C 2.957031 -0.441406 2.703125 -0.285156 2.421875 -0.171875 C 2.148438 -0.0546875 1.878906 0 1.609375 0 C 1.253906 0 0.9375 -0.078125 0.65625 -0.234375 C 0.375 -0.398438 0.15625 -0.617188 0 -0.890625 C -0.164062 -1.171875 -0.25 -1.476562 -0.25 -1.8125 C -0.25 -1.914062 -0.234375 -2.019531 -0.203125 -2.125 C -0.179688 -2.238281 -0.15625 -2.347656 -0.125 -2.453125 L 1 -5.671875 C 1.15625 -6.140625 1.421875 -6.484375 1.796875 -6.703125 C 2.179688 -6.921875 2.570312 -7.03125 2.96875 -7.03125 C 3.269531 -7.03125 3.535156 -6.992188 3.765625 -6.921875 C 3.992188 -6.847656 4.171875 -6.769531 4.296875 -6.6875 C 4.390625 -6.84375 4.515625 -6.957031 4.671875 -7.03125 C 4.835938 -7.101562 5.003906 -7.140625 5.171875 -7.140625 C 5.390625 -7.140625 5.585938 -7.070312 5.765625 -6.9375 C 5.953125 -6.800781 6.046875 -6.601562 6.046875 -6.34375 C 6.046875 -6.21875 6.019531 -6.085938 5.96875 -5.953125 L 4.625 -2.078125 C 4.59375 -1.929688 4.578125 -1.8125 4.578125 -1.71875 C 4.578125 -1.519531 4.679688 -1.421875 4.890625 -1.421875 C 5.078125 -1.421875 5.273438 -1.484375 5.484375 -1.609375 C 5.703125 -1.734375 5.910156 -1.9375 6.109375 -2.21875 C 6.316406 -2.507812 6.5 -2.898438 6.65625 -3.390625 C 6.726562 -3.617188 6.84375 -3.785156 7 -3.890625 C 7.164062 -3.992188 7.332031 -4.046875 7.5 -4.046875 Z M 3.5625 -4.171875 C 3.65625 -4.472656 3.703125 -4.707031 3.703125 -4.875 C 3.703125 -5.082031 3.648438 -5.238281 3.546875 -5.34375 C 3.441406 -5.445312 3.332031 -5.5 3.21875 -5.5 C 3.125 -5.5 3.003906 -5.453125 2.859375 -5.359375 C 2.710938 -5.273438 2.582031 -5.050781 2.46875 -4.6875 L 1.703125 -2.28125 C 1.679688 -2.21875 1.660156 -2.148438 1.640625 -2.078125 C 1.628906 -2.015625 1.625 -1.941406 1.625 -1.859375 C 1.625 -1.566406 1.753906 -1.421875 2.015625 -1.421875 C 2.148438 -1.421875 2.3125 -1.484375 2.5 -1.609375 C 2.6875 -1.734375 2.847656 -1.988281 2.984375 -2.375 Z M 3.5625 -4.171875 "/></g></g></g><g fill="#fffcef" fill-opacity="1"><g transform="translate(258.785658, 211.601383)"><g><path d="M 6.359375 -3.390625 C 6.421875 -3.566406 6.515625 -3.691406 6.640625 -3.765625 C 6.773438 -3.835938 6.914062 -3.875 7.0625 -3.875 C 7.25 -3.875 7.425781 -3.816406 7.59375 -3.703125 C 7.757812 -3.597656 7.84375 -3.457031 7.84375 -3.28125 C 7.84375 -3.257812 7.84375 -3.234375 7.84375 -3.203125 C 7.84375 -3.171875 7.832031 -3.144531 7.8125 -3.125 C 7.53125 -2.320312 7.144531 -1.6875 6.65625 -1.21875 C 6.175781 -0.75 5.625 -0.414062 5 -0.21875 C 4.375 -0.0195312 3.71875 0.078125 3.03125 0.078125 C 2.320312 0.078125 1.722656 -0.0078125 1.234375 -0.1875 C 0.742188 -0.375 0.367188 -0.625 0.109375 -0.9375 C -0.140625 -1.25 -0.265625 -1.601562 -0.265625 -2 C -0.265625 -2.25 -0.21875 -2.503906 -0.125 -2.765625 C -0.0390625 -3.035156 0.0859375 -3.269531 0.265625 -3.46875 C 0.441406 -3.675781 0.664062 -3.8125 0.9375 -3.875 C 1.175781 -4.320312 1.414062 -4.773438 1.65625 -5.234375 C 1.90625 -5.691406 2.144531 -6.148438 2.375 -6.609375 C 2.488281 -6.835938 2.648438 -7.007812 2.859375 -7.125 C 3.078125 -7.238281 3.296875 -7.296875 3.515625 -7.296875 C 3.816406 -7.296875 4.054688 -7.191406 4.234375 -6.984375 C 4.421875 -6.785156 4.515625 -6.5625 4.515625 -6.3125 C 4.515625 -6.132812 4.457031 -5.957031 4.34375 -5.78125 C 4.226562 -5.613281 4.082031 -5.492188 3.90625 -5.421875 C 3.9375 -5.234375 4.003906 -5.039062 4.109375 -4.84375 C 4.210938 -4.644531 4.320312 -4.441406 4.4375 -4.234375 C 4.601562 -3.953125 4.757812 -3.648438 4.90625 -3.328125 C 5.0625 -3.003906 5.140625 -2.671875 5.140625 -2.328125 C 5.140625 -2.242188 5.132812 -2.164062 5.125 -2.09375 C 5.125 -2.019531 5.113281 -1.941406 5.09375 -1.859375 C 5.375 -2.023438 5.617188 -2.234375 5.828125 -2.484375 C 6.035156 -2.734375 6.210938 -3.035156 6.359375 -3.390625 Z M 2.5625 -3.703125 C 2.664062 -3.609375 2.738281 -3.492188 2.78125 -3.359375 C 2.832031 -3.222656 2.859375 -3.085938 2.859375 -2.953125 C 2.859375 -2.660156 2.757812 -2.390625 2.5625 -2.140625 C 2.375 -1.898438 2.109375 -1.78125 1.765625 -1.78125 C 1.722656 -1.78125 1.675781 -1.78125 1.625 -1.78125 C 1.582031 -1.789062 1.535156 -1.800781 1.484375 -1.8125 C 1.546875 -1.65625 1.660156 -1.53125 1.828125 -1.4375 C 1.992188 -1.351562 2.175781 -1.3125 2.375 -1.3125 C 2.695312 -1.332031 2.929688 -1.441406 3.078125 -1.640625 C 3.234375 -1.847656 3.3125 -2.09375 3.3125 -2.375 C 3.3125 -2.644531 3.25 -2.914062 3.125 -3.1875 C 3 -3.46875 2.847656 -3.71875 2.671875 -3.9375 Z M 2.5625 -3.703125 "/></g></g></g><path stroke-linecap="butt" transform="matrix(0.748342, 0.00436471, -0.00436471, 0.748342, 63.931705, 196.709186)" fill="none" stroke-linejoin="miter" d="M 0.000210059 0.498227 L 342.909081 0.497418 " stroke="#ff66c4" stroke-width="1" stroke-opacity="1" stroke-miterlimit="4"/></svg>