<svg xmlns="http://www.w3.org/2000/svg" xmlns:xlink="http://www.w3.org/1999/xlink" width="466" zoomAndPan="magnify" viewBox="0 0 349.5 140.249994" height="187" preserveAspectRatio="xMidYMid meet" version="1.0"><defs><g/><clipPath id="47108d47e7"><path d="M 101.078125 61.425781 L 108.117188 61.425781 L 108.117188 70.089844 L 101.078125 70.089844 Z M 101.078125 61.425781 " clip-rule="nonzero"/></clipPath><clipPath id="68871cdaea"><path d="M 104.597656 61.425781 C 102.652344 61.425781 101.078125 63.363281 101.078125 65.75 C 101.078125 68.140625 102.652344 70.078125 104.597656 70.078125 C 106.542969 70.078125 108.117188 68.140625 108.117188 65.75 C 108.117188 63.363281 106.542969 61.425781 104.597656 61.425781 Z M 104.597656 61.425781 " clip-rule="nonzero"/></clipPath><clipPath id="e9f9f84f3d"><path d="M 102.328125 50.394531 L 113.90625 50.394531 L 113.90625 64.007812 L 102.328125 64.007812 Z M 102.328125 50.394531 " clip-rule="nonzero"/></clipPath><clipPath id="f12502b68f"><path d="M 108.117188 50.394531 C 104.917969 50.394531 102.328125 53.441406 102.328125 57.199219 C 102.328125 60.957031 104.917969 64.003906 108.117188 64.003906 C 111.316406 64.003906 113.90625 60.957031 113.90625 57.199219 C 113.90625 53.441406 111.316406 50.394531 108.117188 50.394531 Z M 108.117188 50.394531 " clip-rule="nonzero"/></clipPath><clipPath id="ad5554542e"><path d="M 320 64 L 333 64 L 333 75 L 320 75 Z M 320 64 " clip-rule="nonzero"/></clipPath><clipPath id="685ae18a9d"><path d="M 321.605469 63.585938 L 333.417969 65.574219 L 331.746094 75.523438 L 319.929688 73.535156 Z M 321.605469 63.585938 " clip-rule="nonzero"/></clipPath><clipPath id="b945f1c449"><path d="M 327.5 64.578125 C 324.246094 64.03125 321.230469 65.8125 320.769531 68.5625 C 320.304688 71.308594 322.570312 73.980469 325.824219 74.527344 C 329.082031 75.074219 332.09375 73.292969 332.558594 70.546875 C 333.019531 67.796875 330.753906 65.128906 327.5 64.578125 Z M 327.5 64.578125 " clip-rule="nonzero"/></clipPath><clipPath id="b3969b7444"><path d="M 313 56 L 327 56 L 327 67 L 313 67 Z M 313 56 " clip-rule="nonzero"/></clipPath><clipPath id="8bcce91615"><path d="M 314.355469 55.425781 L 326.6875 57.078125 L 325.300781 67.429688 L 312.96875 65.773438 Z M 314.355469 55.425781 " clip-rule="nonzero"/></clipPath><clipPath id="d9f8b1c749"><path d="M 320.507812 56.25 C 317.109375 55.792969 314.046875 57.742188 313.664062 60.601562 C 313.28125 63.457031 315.722656 66.144531 319.121094 66.601562 C 322.519531 67.054688 325.585938 65.109375 325.96875 62.25 C 326.351562 59.390625 323.90625 56.703125 320.507812 56.25 Z M 320.507812 56.25 " clip-rule="nonzero"/></clipPath><clipPath id="2405ba5078"><path d="M 316 49 L 326 49 L 326 59 L 316 59 Z M 316 49 " clip-rule="nonzero"/></clipPath><clipPath id="942cdb0864"><path d="M 310.902344 54.449219 L 317.917969 36.363281 L 342.261719 45.808594 L 335.246094 63.890625 Z M 310.902344 54.449219 " clip-rule="nonzero"/></clipPath><clipPath id="5d515eae7f"><path d="M 310.902344 54.449219 L 317.917969 36.363281 L 342.261719 45.808594 L 335.246094 63.890625 Z M 310.902344 54.449219 " clip-rule="nonzero"/></clipPath><clipPath id="1b694fa2a0"><path d="M 322 41 L 327 41 L 327 46 L 322 46 Z M 322 41 " clip-rule="nonzero"/></clipPath><clipPath id="f433dcbb86"><path d="M 310.902344 54.449219 L 317.917969 36.363281 L 342.261719 45.808594 L 335.246094 63.890625 Z M 310.902344 54.449219 " clip-rule="nonzero"/></clipPath><clipPath id="afd0c982ba"><path d="M 310.902344 54.449219 L 317.917969 36.363281 L 342.261719 45.808594 L 335.246094 63.890625 Z M 310.902344 54.449219 " clip-rule="nonzero"/></clipPath><clipPath id="7a58d7ed3d"><path d="M 331 45 L 341 45 L 341 57 L 331 57 Z M 331 45 " clip-rule="nonzero"/></clipPath><clipPath id="0dad96d12d"><path d="M 310.902344 54.449219 L 317.917969 36.363281 L 342.261719 45.808594 L 335.246094 63.890625 Z M 310.902344 54.449219 " clip-rule="nonzero"/></clipPath><clipPath id="b92eeca168"><path d="M 310.902344 54.449219 L 317.917969 36.363281 L 342.261719 45.808594 L 335.246094 63.890625 Z M 310.902344 54.449219 " clip-rule="nonzero"/></clipPath></defs><g fill="#000000" fill-opacity="1"><g transform="translate(48.748222, 84.381832)"><g><path d="M 0.34375 -1.28125 C 0.34375 -1.820312 0.507812 -2.226562 0.84375 -2.5 C 1.1875 -2.769531 1.648438 -3.128906 2.234375 -3.578125 C 2.816406 -4.035156 3.46875 -4.757812 4.1875 -5.75 C 4.59375 -6.332031 5.097656 -7.4375 5.703125 -9.0625 C 6.316406 -10.6875 6.984375 -12.578125 7.703125 -14.734375 C 8.429688 -16.898438 9.164062 -19.128906 9.90625 -21.421875 C 10.644531 -23.722656 11.332031 -25.84375 11.96875 -27.78125 C 12.320312 -28.820312 12.453125 -29.578125 12.359375 -30.046875 C 12.273438 -30.523438 12.085938 -30.882812 11.796875 -31.125 C 11.503906 -31.375 11.234375 -31.597656 10.984375 -31.796875 C 10.734375 -32.003906 10.609375 -32.335938 10.609375 -32.796875 C 10.609375 -33.421875 10.890625 -33.8125 11.453125 -33.96875 C 12.023438 -34.125 12.671875 -34.203125 13.390625 -34.203125 C 14.242188 -34.203125 14.894531 -34.132812 15.34375 -34 C 15.789062 -33.863281 16.601562 -33.796875 17.78125 -33.796875 C 19.082031 -33.796875 20.09375 -33.863281 20.8125 -34 C 21.539062 -34.132812 22.242188 -34.203125 22.921875 -34.203125 C 23.410156 -34.203125 23.820312 -34.132812 24.15625 -34 C 24.5 -33.863281 24.832031 -33.414062 25.15625 -32.65625 C 25.5625 -31.707031 26.078125 -30.226562 26.703125 -28.21875 C 27.335938 -26.21875 28.023438 -24 28.765625 -21.5625 C 29.515625 -19.132812 30.269531 -16.734375 31.03125 -14.359375 C 31.800781 -11.992188 32.519531 -9.929688 33.1875 -8.171875 C 33.863281 -6.421875 34.429688 -5.253906 34.890625 -4.671875 C 35.648438 -3.722656 36.253906 -3.085938 36.703125 -2.765625 C 37.160156 -2.453125 37.390625 -1.957031 37.390625 -1.28125 C 37.390625 -0.601562 37.160156 -0.15625 36.703125 0.0625 C 36.253906 0.289062 35.648438 0.40625 34.890625 0.40625 C 34.035156 0.40625 33.007812 0.335938 31.8125 0.203125 C 30.613281 0.0664062 29.316406 0 27.921875 0 C 27.242188 0 26.421875 0.0664062 25.453125 0.203125 C 24.484375 0.335938 23.550781 0.40625 22.65625 0.40625 C 21.84375 0.40625 21.148438 0.289062 20.578125 0.0625 C 20.015625 -0.15625 19.734375 -0.601562 19.734375 -1.28125 C 19.734375 -1.957031 19.878906 -2.441406 20.171875 -2.734375 C 20.472656 -3.023438 20.757812 -3.441406 21.03125 -3.984375 C 21.300781 -4.523438 21.4375 -5.453125 21.4375 -6.765625 C 21.4375 -7.796875 21.1875 -8.601562 20.6875 -9.1875 C 20.1875 -9.78125 19.554688 -10.078125 18.796875 -10.078125 L 12.578125 -10.078125 C 11.804688 -10.078125 11.171875 -9.78125 10.671875 -9.1875 C 10.179688 -8.601562 9.9375 -7.796875 9.9375 -6.765625 C 9.9375 -5.453125 10.113281 -4.503906 10.46875 -3.921875 C 10.832031 -3.335938 11.195312 -2.882812 11.5625 -2.5625 C 11.925781 -2.25 12.109375 -1.820312 12.109375 -1.28125 C 12.109375 -0.65625 11.859375 -0.21875 11.359375 0.03125 C 10.859375 0.28125 10.296875 0.40625 9.671875 0.40625 C 8.898438 0.40625 8.300781 0.335938 7.875 0.203125 C 7.445312 0.0664062 6.894531 0 6.21875 0 C 5.539062 0 4.988281 0.0664062 4.5625 0.203125 C 4.132812 0.335938 3.535156 0.40625 2.765625 0.40625 C 2.140625 0.40625 1.578125 0.28125 1.078125 0.03125 C 0.585938 -0.21875 0.34375 -0.65625 0.34375 -1.28125 Z M 11.828125 -14.9375 C 11.472656 -13.90625 11.8125 -13.390625 12.84375 -13.390625 L 18.328125 -13.390625 C 19.359375 -13.390625 19.695312 -13.90625 19.34375 -14.9375 C 18.75 -16.65625 18.179688 -18.445312 17.640625 -20.3125 C 17.097656 -22.1875 16.648438 -23.753906 16.296875 -25.015625 C 16.109375 -25.597656 15.90625 -25.890625 15.6875 -25.890625 C 15.507812 -25.890625 15.304688 -25.617188 15.078125 -25.078125 C 14.628906 -23.816406 14.132812 -22.238281 13.59375 -20.34375 C 13.050781 -18.457031 12.460938 -16.65625 11.828125 -14.9375 Z M 11.828125 -14.9375 "/></g></g></g><g fill="#000000" fill-opacity="1"><g transform="translate(84.722617, 84.381832)"><g/></g></g><g fill="#000000" fill-opacity="1"><g transform="translate(93.105682, 84.381832)"><g/></g></g><g fill="#000000" fill-opacity="1"><g transform="translate(101.491216, 84.381832)"><g><path d="M 1.359375 -13.453125 C 1.359375 -17.640625 2.6875 -21.019531 5.34375 -23.59375 C 8 -26.164062 11.71875 -27.453125 16.5 -27.453125 C 20.644531 -27.453125 23.785156 -26.523438 25.921875 -24.671875 C 28.066406 -22.828125 29.140625 -20.507812 29.140625 -17.71875 C 29.140625 -16.1875 28.597656 -14.8125 27.515625 -13.59375 C 26.429688 -12.375 24.945312 -11.765625 23.0625 -11.765625 C 21.519531 -11.765625 20.253906 -12.289062 19.265625 -13.34375 C 18.273438 -14.40625 17.78125 -15.566406 17.78125 -16.828125 C 17.78125 -18.316406 17.878906 -19.59375 18.078125 -20.65625 C 18.285156 -21.71875 18.363281 -22.539062 18.3125 -23.125 C 18.269531 -23.707031 17.890625 -24 17.171875 -24 C 16.046875 -24 15.085938 -23.0625 14.296875 -21.1875 C 13.503906 -19.320312 13.132812 -16.789062 13.1875 -13.59375 C 13.226562 -10.570312 13.753906 -8.144531 14.765625 -6.3125 C 15.785156 -4.488281 17.285156 -3.601562 19.265625 -3.65625 C 20.617188 -3.65625 21.632812 -3.945312 22.3125 -4.53125 C 22.988281 -5.113281 23.515625 -5.785156 23.890625 -6.546875 C 24.273438 -7.316406 24.671875 -7.992188 25.078125 -8.578125 C 25.484375 -9.171875 26.113281 -9.46875 26.96875 -9.46875 C 27.738281 -9.46875 28.316406 -9.226562 28.703125 -8.75 C 29.085938 -8.28125 29.28125 -7.753906 29.28125 -7.171875 C 29.28125 -5.640625 28.679688 -4.304688 27.484375 -3.171875 C 26.285156 -2.046875 24.691406 -1.164062 22.703125 -0.53125 C 20.722656 0.09375 18.585938 0.40625 16.296875 0.40625 C 13.898438 0.40625 11.550781 -0.0507812 9.25 -0.96875 C 6.957031 -1.894531 5.066406 -3.382812 3.578125 -5.4375 C 2.097656 -7.488281 1.359375 -10.160156 1.359375 -13.453125 Z M 1.359375 -13.453125 "/></g></g></g><g fill="#000000" fill-opacity="1"><g transform="translate(130.359049, 84.381832)"><g><path d="M 8.390625 0 C 7.710938 0 6.910156 0.0664062 5.984375 0.203125 C 5.054688 0.335938 4.1875 0.40625 3.375 0.40625 C 2.613281 0.40625 1.972656 0.289062 1.453125 0.0625 C 0.929688 -0.15625 0.671875 -0.601562 0.671875 -1.28125 C 0.671875 -1.78125 0.785156 -2.148438 1.015625 -2.390625 C 1.242188 -2.640625 1.515625 -2.957031 1.828125 -3.34375 C 2.140625 -3.726562 2.40625 -4.328125 2.625 -5.140625 C 2.851562 -5.953125 2.96875 -7.144531 2.96875 -8.71875 C 2.96875 -9.976562 2.96875 -11.453125 2.96875 -13.140625 C 2.96875 -14.835938 2.976562 -16.5625 3 -18.3125 C 3.03125 -20.070312 3.046875 -21.695312 3.046875 -23.1875 C 3.046875 -24.675781 3.046875 -25.878906 3.046875 -26.796875 C 3.046875 -27.722656 3.046875 -28.1875 3.046875 -28.1875 C 3.046875 -29.40625 2.863281 -30.238281 2.5 -30.6875 C 2.132812 -31.144531 1.769531 -31.507812 1.40625 -31.78125 C 1.050781 -32.050781 0.875 -32.476562 0.875 -33.0625 C 0.875 -33.738281 1.097656 -34.195312 1.546875 -34.4375 C 2.003906 -34.6875 2.648438 -34.898438 3.484375 -35.078125 C 4.316406 -35.265625 5.316406 -35.5625 6.484375 -35.96875 C 7.929688 -36.507812 8.925781 -36.992188 9.46875 -37.421875 C 10.007812 -37.847656 10.414062 -38.195312 10.6875 -38.46875 C 10.957031 -38.738281 11.382812 -38.875 11.96875 -38.875 C 12.726562 -38.875 13.253906 -38.515625 13.546875 -37.796875 C 13.847656 -37.078125 14 -36.21875 14 -35.21875 L 14 -22.453125 C 14.132812 -22.128906 14.425781 -22.203125 14.875 -22.671875 C 15.320312 -23.148438 15.953125 -23.757812 16.765625 -24.5 C 17.578125 -25.25 18.566406 -25.925781 19.734375 -26.53125 C 20.910156 -27.144531 22.265625 -27.453125 23.796875 -27.453125 C 25.910156 -27.453125 27.507812 -27 28.59375 -26.09375 C 29.675781 -25.195312 30.410156 -24.070312 30.796875 -22.71875 C 31.179688 -21.363281 31.375 -19.988281 31.375 -18.59375 L 31.375 -8.71875 C 31.375 -7.144531 31.484375 -5.953125 31.703125 -5.140625 C 31.929688 -4.328125 32.203125 -3.726562 32.515625 -3.34375 C 32.835938 -2.957031 33.109375 -2.640625 33.328125 -2.390625 C 33.554688 -2.148438 33.671875 -1.78125 33.671875 -1.28125 C 33.671875 -0.601562 33.476562 -0.15625 33.09375 0.0625 C 32.707031 0.289062 32.203125 0.40625 31.578125 0.40625 C 30.941406 0.40625 30.207031 0.335938 29.375 0.203125 C 28.539062 0.0664062 27.738281 0 26.96875 0 C 26.25 0 25.628906 0.03125 25.109375 0.09375 C 24.597656 0.164062 24.046875 0.25 23.453125 0.34375 C 22.554688 0.425781 21.828125 0.222656 21.265625 -0.265625 C 20.703125 -0.765625 20.421875 -1.460938 20.421875 -2.359375 L 20.421875 -13.453125 C 20.421875 -15.617188 20.191406 -17.265625 19.734375 -18.390625 C 19.285156 -19.515625 18.476562 -20.078125 17.3125 -20.078125 C 16.445312 -20.078125 15.6875 -19.726562 15.03125 -19.03125 C 14.382812 -18.332031 14.039062 -16.925781 14 -14.8125 L 13.859375 -8.71875 C 13.816406 -7.09375 13.90625 -5.863281 14.125 -5.03125 C 14.351562 -4.195312 14.625 -3.609375 14.9375 -3.265625 C 15.257812 -2.929688 15.539062 -2.640625 15.78125 -2.390625 C 16.03125 -2.148438 16.15625 -1.78125 16.15625 -1.28125 C 16.15625 -0.601562 15.894531 -0.15625 15.375 0.0625 C 14.863281 0.289062 14.222656 0.40625 13.453125 0.40625 C 12.597656 0.40625 11.707031 0.335938 10.78125 0.203125 C 9.851562 0.0664062 9.054688 0 8.390625 0 Z M 8.390625 0 "/></g></g></g><g fill="#000000" fill-opacity="1"><g transform="translate(162.945247, 84.381832)"><g><path d="M 5.546875 -24.671875 C 3.921875 -24.671875 2.757812 -25.132812 2.0625 -26.0625 C 1.363281 -26.988281 1.015625 -28.101562 1.015625 -29.40625 C 1.015625 -30.757812 1.472656 -31.894531 2.390625 -32.8125 C 3.316406 -33.738281 4.457031 -34.203125 5.8125 -34.203125 C 7.125 -34.203125 8.238281 -33.707031 9.15625 -32.71875 C 10.082031 -31.726562 10.546875 -30.3125 10.546875 -28.46875 C 10.546875 -27.425781 10.351562 -26.375 9.96875 -25.3125 C 9.582031 -24.257812 9.003906 -23.382812 8.234375 -22.6875 C 7.472656 -21.988281 6.488281 -21.640625 5.28125 -21.640625 C 4.550781 -21.640625 4.050781 -21.738281 3.78125 -21.9375 C 3.507812 -22.144531 3.375 -22.382812 3.375 -22.65625 C 3.375 -22.925781 3.554688 -23.035156 3.921875 -22.984375 C 4.285156 -22.941406 4.691406 -23.03125 5.140625 -23.25 C 5.628906 -23.519531 5.894531 -23.820312 5.9375 -24.15625 C 5.988281 -24.5 5.859375 -24.671875 5.546875 -24.671875 Z M 5.546875 -24.671875 "/></g></g></g><g fill="#ff9ff3" fill-opacity="1"><g transform="translate(177.682019, 84.296483)"><g><path d="M 1.390625 -17.46875 C 1.390625 -20.820312 2.125 -23.847656 3.59375 -26.546875 C 5.0625 -29.253906 7.113281 -31.398438 9.75 -32.984375 C 12.382812 -34.566406 15.398438 -35.359375 18.796875 -35.359375 C 20.148438 -35.359375 21.195312 -35.289062 21.9375 -35.15625 C 22.6875 -35.019531 23.570312 -34.953125 24.59375 -34.953125 C 25.394531 -34.953125 26.144531 -35.019531 26.84375 -35.15625 C 27.539062 -35.289062 28.164062 -35.359375 28.71875 -35.359375 C 29.09375 -35.359375 29.421875 -35.289062 29.703125 -35.15625 C 29.984375 -35.019531 30.21875 -34.738281 30.40625 -34.3125 C 31.195312 -32.351562 31.894531 -30.523438 32.5 -28.828125 C 33.101562 -27.128906 33.414062 -25.753906 33.4375 -24.703125 C 33.46875 -23.660156 32.921875 -23.140625 31.796875 -23.140625 C 30.773438 -23.140625 29.914062 -23.546875 29.21875 -24.359375 C 28.519531 -25.171875 27.796875 -26.125 27.046875 -27.21875 C 26.296875 -28.3125 25.394531 -29.265625 24.34375 -30.078125 C 23.300781 -30.898438 21.921875 -31.3125 20.203125 -31.3125 C 18.566406 -31.3125 17.234375 -30.65625 16.203125 -29.34375 C 15.179688 -28.039062 14.4375 -26.34375 13.96875 -24.25 C 13.507812 -22.15625 13.28125 -19.894531 13.28125 -17.46875 C 13.28125 -15.050781 13.507812 -12.769531 13.96875 -10.625 C 14.4375 -8.476562 15.179688 -6.726562 16.203125 -5.375 C 17.234375 -4.03125 18.613281 -3.359375 20.34375 -3.359375 C 21.875 -3.359375 23.023438 -3.726562 23.796875 -4.46875 C 24.566406 -5.21875 25.160156 -6.140625 25.578125 -7.234375 C 25.992188 -8.328125 26.375 -9.421875 26.71875 -10.515625 C 27.070312 -11.609375 27.578125 -12.523438 28.234375 -13.265625 C 28.890625 -14.015625 29.84375 -14.390625 31.09375 -14.390625 C 32.539062 -14.390625 33.613281 -13.890625 34.3125 -12.890625 C 35.007812 -11.890625 35.265625 -10.65625 35.078125 -9.1875 C 34.898438 -7.71875 34.210938 -6.25 33.015625 -4.78125 C 31.828125 -3.320312 30.066406 -2.085938 27.734375 -1.078125 C 25.410156 -0.078125 22.429688 0.421875 18.796875 0.421875 C 15.253906 0.421875 12.175781 -0.367188 9.5625 -1.953125 C 6.957031 -3.535156 4.941406 -5.675781 3.515625 -8.375 C 2.097656 -11.082031 1.390625 -14.113281 1.390625 -17.46875 Z M 1.390625 -17.46875 "/></g></g></g><g fill="#000000" fill-opacity="1"><g transform="translate(213.926428, 82.30724)"><g><path d="M 6.21875 0.28125 C 4.4375 0.28125 3.113281 -0.242188 2.25 -1.296875 C 1.382812 -2.347656 0.953125 -3.609375 0.953125 -5.078125 C 0.953125 -7.210938 1.75 -8.894531 3.34375 -10.125 C 4.945312 -11.351562 7.023438 -12.238281 9.578125 -12.78125 C 11.992188 -13.289062 13.203125 -14.085938 13.203125 -15.171875 C 13.203125 -15.585938 13.023438 -15.992188 12.671875 -16.390625 C 12.328125 -16.785156 11.722656 -16.984375 10.859375 -16.984375 C 10.003906 -16.984375 9.300781 -16.753906 8.75 -16.296875 C 8.207031 -15.835938 7.726562 -15.3125 7.3125 -14.71875 C 6.90625 -14.125 6.453125 -13.59375 5.953125 -13.125 C 5.460938 -12.664062 4.800781 -12.4375 3.96875 -12.4375 C 3.425781 -12.4375 2.957031 -12.628906 2.5625 -13.015625 C 2.164062 -13.398438 1.96875 -13.863281 1.96875 -14.40625 C 1.96875 -15.488281 2.394531 -16.40625 3.25 -17.15625 C 4.113281 -17.90625 5.238281 -18.472656 6.625 -18.859375 C 8.007812 -19.242188 9.519531 -19.4375 11.15625 -19.4375 C 12.90625 -19.4375 14.5 -19.15625 15.9375 -18.59375 C 17.375 -18.03125 18.519531 -17.09375 19.375 -15.78125 C 20.238281 -14.476562 20.671875 -12.695312 20.671875 -10.4375 L 20.671875 -6.171875 C 20.671875 -5.054688 20.75 -4.210938 20.90625 -3.640625 C 21.070312 -3.066406 21.265625 -2.644531 21.484375 -2.375 C 21.710938 -2.101562 21.90625 -1.878906 22.0625 -1.703125 C 22.21875 -1.523438 22.296875 -1.257812 22.296875 -0.90625 C 22.296875 -0.425781 22.148438 -0.109375 21.859375 0.046875 C 21.578125 0.203125 21.210938 0.28125 20.765625 0.28125 C 20.285156 0.28125 19.757812 0.234375 19.1875 0.140625 C 18.613281 0.046875 18.085938 0 17.609375 0 C 17.097656 0 16.648438 0.0195312 16.265625 0.0625 C 15.890625 0.113281 15.492188 0.171875 15.078125 0.234375 C 14.566406 0.296875 14.109375 0.234375 13.703125 0.046875 C 13.304688 -0.140625 13.078125 -0.488281 13.015625 -1 C 12.984375 -1.507812 12.90625 -1.851562 12.78125 -2.03125 C 12.65625 -2.207031 12.492188 -2.296875 12.296875 -2.296875 C 11.941406 -2.296875 11.484375 -2.078125 10.921875 -1.640625 C 10.367188 -1.210938 9.703125 -0.785156 8.921875 -0.359375 C 8.140625 0.0664062 7.238281 0.28125 6.21875 0.28125 Z M 8.375 -7.03125 C 8.375 -6.101562 8.601562 -5.441406 9.0625 -5.046875 C 9.53125 -4.648438 10.082031 -4.453125 10.71875 -4.453125 C 11.519531 -4.453125 12.125 -4.796875 12.53125 -5.484375 C 12.945312 -6.171875 13.15625 -6.972656 13.15625 -7.890625 L 13.15625 -10.1875 C 13.15625 -11.050781 12.757812 -11.273438 11.96875 -10.859375 C 11.457031 -10.609375 10.921875 -10.332031 10.359375 -10.03125 C 9.804688 -9.726562 9.335938 -9.351562 8.953125 -8.90625 C 8.566406 -8.457031 8.375 -7.832031 8.375 -7.03125 Z M 8.375 -7.03125 "/></g></g></g><g fill="#000000" fill-opacity="1"><g transform="translate(235.460261, 82.30724)"><g><path d="M 6.171875 0 C 5.691406 0 5.125 0.046875 4.46875 0.140625 C 3.820312 0.234375 3.207031 0.28125 2.625 0.28125 C 2.082031 0.28125 1.628906 0.203125 1.265625 0.046875 C 0.898438 -0.109375 0.71875 -0.425781 0.71875 -0.90625 C 0.71875 -1.257812 0.796875 -1.523438 0.953125 -1.703125 C 1.117188 -1.878906 1.3125 -2.101562 1.53125 -2.375 C 1.75 -2.644531 1.9375 -3.066406 2.09375 -3.640625 C 2.257812 -4.210938 2.34375 -5.054688 2.34375 -6.171875 C 2.34375 -7.640625 2.347656 -8.703125 2.359375 -9.359375 C 2.378906 -10.015625 2.390625 -10.492188 2.390625 -10.796875 C 2.390625 -11.097656 2.390625 -11.441406 2.390625 -11.828125 C 2.390625 -12.679688 2.253906 -13.273438 1.984375 -13.609375 C 1.710938 -13.953125 1.441406 -14.21875 1.171875 -14.40625 C 0.898438 -14.59375 0.765625 -14.894531 0.765625 -15.3125 C 0.765625 -15.789062 0.921875 -16.117188 1.234375 -16.296875 C 1.554688 -16.472656 2.015625 -16.625 2.609375 -16.75 C 3.203125 -16.875 3.910156 -17.082031 4.734375 -17.375 C 5.753906 -17.757812 6.457031 -18.101562 6.84375 -18.40625 C 7.226562 -18.707031 7.515625 -18.953125 7.703125 -19.140625 C 7.898438 -19.335938 8.203125 -19.4375 8.609375 -19.4375 C 9.179688 -19.4375 9.5625 -19.179688 9.75 -18.671875 C 9.945312 -18.160156 10.046875 -17.550781 10.046875 -16.84375 L 10.046875 -16.46875 C 10.046875 -16.019531 10.128906 -15.796875 10.296875 -15.796875 C 10.453125 -15.796875 10.703125 -15.976562 11.046875 -16.34375 C 11.398438 -16.707031 11.851562 -17.128906 12.40625 -17.609375 C 12.96875 -18.085938 13.640625 -18.507812 14.421875 -18.875 C 15.210938 -19.25 16.097656 -19.4375 17.078125 -19.4375 C 18.066406 -19.4375 18.878906 -19.25 19.515625 -18.875 C 20.160156 -18.507812 20.664062 -18.085938 21.03125 -17.609375 C 21.394531 -17.128906 21.6875 -16.707031 21.90625 -16.34375 C 22.132812 -15.976562 22.316406 -15.796875 22.453125 -15.796875 C 22.671875 -15.796875 22.953125 -15.96875 23.296875 -16.3125 C 23.648438 -16.664062 24.097656 -17.085938 24.640625 -17.578125 C 25.191406 -18.078125 25.859375 -18.507812 26.640625 -18.875 C 27.421875 -19.25 28.351562 -19.4375 29.4375 -19.4375 C 30.9375 -19.4375 32.066406 -19.113281 32.828125 -18.46875 C 33.597656 -17.832031 34.117188 -17.035156 34.390625 -16.078125 C 34.660156 -15.117188 34.796875 -14.144531 34.796875 -13.15625 L 34.796875 -6.171875 C 34.796875 -5.054688 34.875 -4.210938 35.03125 -3.640625 C 35.1875 -3.066406 35.367188 -2.644531 35.578125 -2.375 C 35.785156 -2.101562 35.976562 -1.878906 36.15625 -1.703125 C 36.332031 -1.523438 36.421875 -1.257812 36.421875 -0.90625 C 36.421875 -0.425781 36.285156 -0.109375 36.015625 0.046875 C 35.742188 0.203125 35.382812 0.28125 34.9375 0.28125 C 34.488281 0.28125 33.96875 0.234375 33.375 0.140625 C 32.789062 0.046875 32.226562 0 31.6875 0 C 31.175781 0 30.734375 0.0195312 30.359375 0.0625 C 29.992188 0.113281 29.601562 0.171875 29.1875 0.234375 C 28.550781 0.296875 28.035156 0.15625 27.640625 -0.1875 C 27.242188 -0.539062 27.046875 -1.035156 27.046875 -1.671875 L 27.046875 -9.53125 C 27.046875 -11.0625 26.890625 -12.222656 26.578125 -13.015625 C 26.273438 -13.816406 25.710938 -14.21875 24.890625 -14.21875 C 24.210938 -14.21875 23.632812 -13.921875 23.15625 -13.328125 C 22.6875 -12.734375 22.453125 -11.546875 22.453125 -9.765625 L 22.453125 -6.171875 C 22.453125 -5.054688 22.53125 -4.210938 22.6875 -3.640625 C 22.84375 -3.066406 23.03125 -2.644531 23.25 -2.375 C 23.476562 -2.101562 23.671875 -1.878906 23.828125 -1.703125 C 23.992188 -1.523438 24.078125 -1.257812 24.078125 -0.90625 C 24.078125 -0.425781 23.941406 -0.109375 23.671875 0.046875 C 23.398438 0.203125 23.039062 0.28125 22.59375 0.28125 C 22.144531 0.28125 21.625 0.234375 21.03125 0.140625 C 20.445312 0.046875 19.878906 0 19.328125 0 C 18.816406 0 18.378906 0.0195312 18.015625 0.0625 C 17.648438 0.113281 17.257812 0.171875 16.84375 0.234375 C 16.207031 0.296875 15.6875 0.15625 15.28125 -0.1875 C 14.882812 -0.539062 14.6875 -1.035156 14.6875 -1.671875 L 14.6875 -9.53125 C 14.6875 -11.0625 14.523438 -12.222656 14.203125 -13.015625 C 13.890625 -13.816406 13.316406 -14.21875 12.484375 -14.21875 C 11.753906 -14.21875 11.164062 -13.84375 10.71875 -13.09375 C 10.269531 -12.34375 10.046875 -10.800781 10.046875 -8.46875 L 10.046875 -6.171875 C 10.046875 -5.054688 10.125 -4.210938 10.28125 -3.640625 C 10.445312 -3.066406 10.640625 -2.644531 10.859375 -2.375 C 11.085938 -2.101562 11.28125 -1.878906 11.4375 -1.703125 C 11.59375 -1.523438 11.671875 -1.257812 11.671875 -0.90625 C 11.671875 -0.425781 11.488281 -0.109375 11.125 0.046875 C 10.757812 0.203125 10.304688 0.28125 9.765625 0.28125 C 9.160156 0.28125 8.53125 0.234375 7.875 0.140625 C 7.21875 0.046875 6.648438 0 6.171875 0 Z M 6.171875 0 "/></g></g></g><g fill="#000000" fill-opacity="1"><g transform="translate(271.349989, 82.30724)"><g><path d="M 6.078125 0 C 5.597656 0 5.03125 0.046875 4.375 0.140625 C 3.71875 0.234375 3.101562 0.28125 2.53125 0.28125 C 1.988281 0.28125 1.535156 0.203125 1.171875 0.046875 C 0.804688 -0.109375 0.625 -0.425781 0.625 -0.90625 C 0.625 -1.257812 0.703125 -1.523438 0.859375 -1.703125 C 1.015625 -1.878906 1.203125 -2.101562 1.421875 -2.375 C 1.648438 -2.644531 1.84375 -3.066406 2 -3.640625 C 2.164062 -4.210938 2.25 -5.054688 2.25 -6.171875 C 2.25 -7.640625 2.253906 -8.703125 2.265625 -9.359375 C 2.285156 -10.015625 2.296875 -10.492188 2.296875 -10.796875 C 2.296875 -11.097656 2.296875 -11.441406 2.296875 -11.828125 C 2.296875 -12.679688 2.160156 -13.273438 1.890625 -13.609375 C 1.617188 -13.953125 1.347656 -14.21875 1.078125 -14.40625 C 0.804688 -14.59375 0.671875 -14.894531 0.671875 -15.3125 C 0.671875 -15.789062 0.828125 -16.117188 1.140625 -16.296875 C 1.460938 -16.472656 1.914062 -16.625 2.5 -16.75 C 3.09375 -16.875 3.804688 -17.082031 4.640625 -17.375 C 5.660156 -17.757812 6.363281 -18.101562 6.75 -18.40625 C 7.132812 -18.707031 7.421875 -18.953125 7.609375 -19.140625 C 7.796875 -19.335938 8.097656 -19.4375 8.515625 -19.4375 C 9.085938 -19.4375 9.46875 -19.179688 9.65625 -18.671875 C 9.851562 -18.160156 9.953125 -17.550781 9.953125 -16.84375 L 9.953125 -6.171875 C 9.953125 -5.054688 10.03125 -4.210938 10.1875 -3.640625 C 10.351562 -3.066406 10.546875 -2.644531 10.765625 -2.375 C 10.992188 -2.101562 11.1875 -1.878906 11.34375 -1.703125 C 11.5 -1.523438 11.578125 -1.257812 11.578125 -0.90625 C 11.578125 -0.425781 11.394531 -0.109375 11.03125 0.046875 C 10.664062 0.203125 10.210938 0.28125 9.671875 0.28125 C 9.066406 0.28125 8.4375 0.234375 7.78125 0.140625 C 7.125 0.046875 6.554688 0 6.078125 0 Z M 0.625 -20.765625 C 0.300781 -21.722656 0.46875 -22.757812 1.125 -23.875 C 1.78125 -25 2.773438 -25.910156 4.109375 -26.609375 C 5.234375 -27.179688 6.253906 -27.46875 7.171875 -27.46875 C 8.578125 -27.46875 9.488281 -26.894531 9.90625 -25.75 C 10.257812 -24.757812 10.109375 -23.722656 9.453125 -22.640625 C 8.796875 -21.554688 7.800781 -20.644531 6.46875 -19.90625 C 5.3125 -19.332031 4.269531 -19.046875 3.34375 -19.046875 C 1.976562 -19.046875 1.070312 -19.617188 0.625 -20.765625 Z M 0.625 -20.765625 "/></g></g></g><g fill="#000000" fill-opacity="1"><g transform="translate(282.116912, 82.30724)"><g><path d="M 11.34375 0.28125 C 8.15625 0.28125 5.625 -0.582031 3.75 -2.3125 C 1.882812 -4.050781 0.953125 -6.472656 0.953125 -9.578125 C 0.953125 -12.703125 1.882812 -15.125 3.75 -16.84375 C 5.625 -18.570312 8.15625 -19.4375 11.34375 -19.4375 C 14.53125 -19.4375 17.054688 -18.570312 18.921875 -16.84375 C 20.796875 -15.125 21.734375 -12.703125 21.734375 -9.578125 C 21.734375 -6.472656 20.796875 -4.050781 18.921875 -2.3125 C 17.054688 -0.582031 14.53125 0.28125 11.34375 0.28125 Z M 8.859375 -9.578125 C 8.859375 -8.265625 8.925781 -7.054688 9.0625 -5.953125 C 9.207031 -4.859375 9.460938 -3.988281 9.828125 -3.34375 C 10.203125 -2.707031 10.707031 -2.390625 11.34375 -2.390625 C 12.007812 -2.390625 12.523438 -2.707031 12.890625 -3.34375 C 13.265625 -3.988281 13.515625 -4.859375 13.640625 -5.953125 C 13.765625 -7.054688 13.828125 -8.265625 13.828125 -9.578125 C 13.828125 -10.910156 13.765625 -12.117188 13.640625 -13.203125 C 13.515625 -14.296875 13.265625 -15.160156 12.890625 -15.796875 C 12.523438 -16.429688 12.007812 -16.75 11.34375 -16.75 C 10.707031 -16.75 10.203125 -16.429688 9.828125 -15.796875 C 9.460938 -15.160156 9.207031 -14.296875 9.0625 -13.203125 C 8.925781 -12.117188 8.859375 -10.910156 8.859375 -9.578125 Z M 8.859375 -9.578125 "/></g></g></g><g fill="#000000" fill-opacity="1"><g transform="translate(303.555047, 82.30724)"><g><path d="M 0.484375 -0.90625 C 0.484375 -1.257812 0.5625 -1.523438 0.71875 -1.703125 C 0.875 -1.878906 1.0625 -2.101562 1.28125 -2.375 C 1.507812 -2.644531 1.703125 -3.066406 1.859375 -3.640625 C 2.023438 -4.210938 2.109375 -5.054688 2.109375 -6.171875 C 2.109375 -7.640625 2.113281 -8.703125 2.125 -9.359375 C 2.144531 -10.015625 2.15625 -10.492188 2.15625 -10.796875 C 2.15625 -11.097656 2.15625 -11.441406 2.15625 -11.828125 C 2.15625 -12.679688 2.019531 -13.273438 1.75 -13.609375 C 1.476562 -13.953125 1.207031 -14.21875 0.9375 -14.40625 C 0.664062 -14.59375 0.53125 -14.894531 0.53125 -15.3125 C 0.53125 -15.789062 0.6875 -16.117188 1 -16.296875 C 1.320312 -16.472656 1.773438 -16.625 2.359375 -16.75 C 2.953125 -16.875 3.664062 -17.082031 4.5 -17.375 C 5.519531 -17.757812 6.21875 -18.101562 6.59375 -18.40625 C 6.976562 -18.707031 7.265625 -18.953125 7.453125 -19.140625 C 7.648438 -19.335938 7.957031 -19.4375 8.375 -19.4375 C 8.945312 -19.4375 9.328125 -19.179688 9.515625 -18.671875 C 9.710938 -18.160156 9.8125 -17.550781 9.8125 -16.84375 L 9.8125 -16.46875 C 9.8125 -16.019531 9.890625 -15.796875 10.046875 -15.796875 C 10.210938 -15.796875 10.46875 -15.976562 10.8125 -16.34375 C 11.164062 -16.707031 11.617188 -17.128906 12.171875 -17.609375 C 12.734375 -18.085938 13.40625 -18.507812 14.1875 -18.875 C 14.96875 -19.25 15.851562 -19.4375 16.84375 -19.4375 C 18.34375 -19.4375 19.472656 -19.113281 20.234375 -18.46875 C 21.003906 -17.832031 21.523438 -17.035156 21.796875 -16.078125 C 22.066406 -15.117188 22.203125 -14.144531 22.203125 -13.15625 L 22.203125 -6.171875 C 22.203125 -5.054688 22.28125 -4.210938 22.4375 -3.640625 C 22.601562 -3.066406 22.796875 -2.644531 23.015625 -2.375 C 23.242188 -2.101562 23.4375 -1.878906 23.59375 -1.703125 C 23.75 -1.523438 23.828125 -1.257812 23.828125 -0.90625 C 23.828125 -0.425781 23.691406 -0.109375 23.421875 0.046875 C 23.148438 0.203125 22.789062 0.28125 22.34375 0.28125 C 21.90625 0.28125 21.390625 0.234375 20.796875 0.140625 C 20.203125 0.046875 19.632812 0 19.09375 0 C 18.582031 0 18.144531 0.0195312 17.78125 0.0625 C 17.414062 0.113281 17.023438 0.171875 16.609375 0.234375 C 15.972656 0.296875 15.453125 0.15625 15.046875 -0.1875 C 14.648438 -0.539062 14.453125 -1.035156 14.453125 -1.671875 L 14.453125 -9.53125 C 14.453125 -11.0625 14.289062 -12.222656 13.96875 -13.015625 C 13.65625 -13.816406 13.082031 -14.21875 12.25 -14.21875 C 11.519531 -14.21875 10.929688 -13.84375 10.484375 -13.09375 C 10.035156 -12.34375 9.8125 -10.800781 9.8125 -8.46875 L 9.8125 -6.171875 C 9.8125 -5.054688 9.890625 -4.210938 10.046875 -3.640625 C 10.210938 -3.066406 10.40625 -2.644531 10.625 -2.375 C 10.84375 -2.101562 11.03125 -1.878906 11.1875 -1.703125 C 11.351562 -1.523438 11.4375 -1.257812 11.4375 -0.90625 C 11.4375 -0.425781 11.253906 -0.109375 10.890625 0.046875 C 10.523438 0.203125 10.070312 0.28125 9.53125 0.28125 C 8.914062 0.28125 8.28125 0.234375 7.625 0.140625 C 6.976562 0.046875 6.414062 0 5.9375 0 C 5.457031 0 4.890625 0.046875 4.234375 0.140625 C 3.578125 0.234375 2.960938 0.28125 2.390625 0.28125 C 1.847656 0.28125 1.394531 0.203125 1.03125 0.046875 C 0.664062 -0.109375 0.484375 -0.425781 0.484375 -0.90625 Z M 0.484375 -0.90625 "/></g></g></g><g clip-path="url(#47108d47e7)"><g clip-path="url(#68871cdaea)"><path fill="#ffffff" d="M 101.078125 61.425781 L 108.117188 61.425781 L 108.117188 70.089844 L 101.078125 70.089844 Z M 101.078125 61.425781 " fill-opacity="1" fill-rule="nonzero"/></g></g><g clip-path="url(#e9f9f84f3d)"><g clip-path="url(#f12502b68f)"><path fill="#ffffff" d="M 102.328125 50.394531 L 113.90625 50.394531 L 113.90625 64.007812 L 102.328125 64.007812 Z M 102.328125 50.394531 " fill-opacity="1" fill-rule="nonzero"/></g></g><g clip-path="url(#ad5554542e)"><g clip-path="url(#685ae18a9d)"><g clip-path="url(#b945f1c449)"><path fill="#ffffff" d="M 321.605469 63.585938 L 333.378906 65.570312 L 331.707031 75.515625 L 319.929688 73.535156 Z M 321.605469 63.585938 " fill-opacity="1" fill-rule="nonzero"/></g></g></g><g clip-path="url(#b3969b7444)"><g clip-path="url(#8bcce91615)"><g clip-path="url(#d9f8b1c749)"><path fill="#ffffff" d="M 314.355469 55.425781 L 326.648438 57.070312 L 325.261719 67.421875 L 312.96875 65.773438 Z M 314.355469 55.425781 " fill-opacity="1" fill-rule="nonzero"/></g></g></g><g clip-path="url(#2405ba5078)"><g clip-path="url(#942cdb0864)"><g clip-path="url(#5d515eae7f)"><path fill="#000000" d="M 321.890625 58.710938 C 321.890625 58.710938 326.546875 59.5 325.78125 51.738281 C 325.78125 51.738281 324.800781 48.117188 320.585938 50.84375 C 320.585938 50.84375 311.4375 53.101562 321.890625 58.710938 Z M 321.890625 58.710938 " fill-opacity="1" fill-rule="nonzero"/></g></g></g><g clip-path="url(#1b694fa2a0)"><g clip-path="url(#f433dcbb86)"><g clip-path="url(#afd0c982ba)"><path fill="#000000" d="M 324.578125 45.695312 C 324.578125 45.695312 326.859375 46.082031 326.484375 42.277344 C 326.484375 42.277344 326.003906 40.5 323.9375 41.835938 C 323.9375 41.835938 319.457031 42.945312 324.578125 45.695312 Z M 324.578125 45.695312 " fill-opacity="1" fill-rule="nonzero"/></g></g></g><g clip-path="url(#7a58d7ed3d)"><g clip-path="url(#0dad96d12d)"><g clip-path="url(#b92eeca168)"><path fill="#000000" d="M 331.210938 50.246094 C 331.210938 50.246094 330.753906 58.417969 334.664062 55.921875 C 338.570312 53.429688 340.152344 52.027344 340.152344 52.027344 C 340.152344 52.027344 334.320312 43.078125 332.765625 46.664062 C 331.210938 50.246094 331.210938 50.246094 331.210938 50.246094 Z M 331.210938 50.246094 " fill-opacity="1" fill-rule="nonzero"/></g></g></g></svg>